<svg xmlns="http://www.w3.org/2000/svg" xmlns:xlink="http://www.w3.org/1999/xlink" version="1.1" x="0px" y="0px" viewBox="0 0 100 100" enable-background="new 0 0 100 100" xml:space="preserve"><g><path d="M35.065,34.253c4.251,0,7.709-3.458,7.709-7.708c0-4.252-3.458-7.711-7.709-7.711s-7.709,3.459-7.709,7.711   C27.356,30.795,30.814,34.253,35.065,34.253z M35.065,21.834c2.597,0,4.709,2.113,4.709,4.711c0,2.596-2.113,4.708-4.709,4.708   s-4.709-2.112-4.709-4.708C30.356,23.948,32.469,21.834,35.065,21.834z"/><path d="M39.535,58.281h-8.13V39.944c0-3.689-3.001-6.69-6.69-6.69s-6.69,3.001-6.69,6.69v23.008c0,2.576,2.096,4.672,4.672,4.672   h11.995c0.02,0,0.106-0.001,0.126-0.002c0.216,0,0.41,0.016,0.565,0.039v12.805c0,2.29,1.863,4.153,4.152,4.153   c2.29,0,4.153-1.863,4.153-4.153V62.433C43.688,60.144,41.825,58.281,39.535,58.281z M40.688,80.465   c0,0.636-0.517,1.153-1.153,1.153c-0.635,0-1.152-0.518-1.152-1.153V67.046c0-0.569-0.257-2.425-3.565-2.425l-12.121,0.002   c-0.922,0-1.672-0.75-1.672-1.672V39.944c0-2.035,1.655-3.69,3.69-3.69s3.69,1.655,3.69,3.69v19.837c0,0.829,0.671,1.5,1.5,1.5   h9.63c0.636,0,1.153,0.517,1.153,1.152V80.465z"/><path d="M75.931,30.546c4.251,0,7.709-3.458,7.709-7.708c0-4.251-3.458-7.71-7.709-7.71s-7.709,3.458-7.709,7.71   C68.222,27.088,71.68,30.546,75.931,30.546z M75.931,18.128c2.597,0,4.709,2.113,4.709,4.71c0,2.596-2.112,4.708-4.709,4.708   s-4.709-2.112-4.709-4.708C71.222,20.241,73.334,18.128,75.931,18.128z"/><path d="M82.195,63.206v-23.01c0-3.688-3.001-6.689-6.69-6.689s-6.69,3.001-6.69,6.689v8.32l-6.883-4.721   c-0.363-0.249-0.819-0.326-1.241-0.211c-0.425,0.115-0.777,0.411-0.965,0.809l-3.051,6.486c-0.312,0.663-0.099,1.454,0.503,1.872   l8.341,5.783h-4.834c-2.29,0-4.153,1.863-4.153,4.152v18.033c0,2.29,1.863,4.152,4.153,4.152c2.29,0,4.152-1.863,4.152-4.152   V67.913c0.155-0.022,0.349-0.038,0.563-0.038l12.123,0.002C80.1,67.876,82.195,65.781,82.195,63.206z M61.69,47.267l7.125,4.887   v5.015l-8.886-6.16L61.69,47.267z M65.401,64.875c-3.307,0-3.563,1.856-3.563,2.425v13.42c0,0.635-0.517,1.152-1.152,1.152   c-0.636,0-1.153-0.517-1.153-1.152V62.686c0-0.635,0.517-1.152,1.153-1.152h9.63c0.114,0,0.224-0.015,0.331-0.04   c0.029-0.006,0.056-0.018,0.084-0.026c0.078-0.023,0.154-0.049,0.226-0.083c0.034-0.017,0.066-0.035,0.099-0.054   c0.065-0.037,0.127-0.079,0.186-0.125c0.03-0.023,0.059-0.046,0.087-0.072c0.072-0.066,0.136-0.138,0.194-0.216   c0.008-0.011,0.019-0.018,0.026-0.029c0.001-0.002,0.002-0.005,0.004-0.007c0.046-0.067,0.084-0.14,0.119-0.215   c0.007-0.016,0.018-0.03,0.025-0.046c0.019-0.044,0.029-0.092,0.043-0.139c0.015-0.048,0.035-0.095,0.044-0.144   c0.003-0.016,0.003-0.033,0.006-0.05c0.014-0.082,0.024-0.164,0.024-0.246c0-0.003,0.001-0.005,0.001-0.008v-8.657   c0-0.001,0-0.002,0-0.003V40.196c0-2.034,1.655-3.689,3.69-3.689s3.69,1.655,3.69,3.689v23.01c0,0.921-0.75,1.671-1.672,1.671   l-11.935,0.001L65.401,64.875z"/><path d="M92.75,38.422h-7.228c-0.829,0-1.5,0.671-1.5,1.5V69.79H68.146c-0.829,0-1.5,0.671-1.5,1.5v5.689   c0,0.829,0.671,1.5,1.5,1.5H92.75c0.829,0,1.5-0.671,1.5-1.5V71.29V39.922C94.25,39.094,93.579,38.422,92.75,38.422z M91.25,75.479   H69.646V72.79h15.876c0,0,0,0,0,0l0,0c0.829,0,1.5-0.671,1.5-1.5V41.422h4.228V71.29V75.479z"/><path d="M77.065,79.17h-3.999c-0.829,0-1.5,0.671-1.5,1.5s0.671,1.5,1.5,1.5h3.999c0.829,0,1.5-0.671,1.5-1.5   S77.894,79.17,77.065,79.17z"/><path d="M89.675,79.17h-3.998c-0.829,0-1.5,0.671-1.5,1.5s0.671,1.5,1.5,1.5h3.998c0.829,0,1.5-0.671,1.5-1.5   S90.503,79.17,89.675,79.17z"/><path d="M31.854,69.79H15.978V39.922c0-0.829-0.671-1.5-1.5-1.5H7.25c-0.829,0-1.5,0.671-1.5,1.5V71.29v5.689   c0,0.829,0.671,1.5,1.5,1.5h24.605c0.829,0,1.5-0.671,1.5-1.5V71.29C33.354,70.461,32.683,69.79,31.854,69.79z M30.354,75.479H8.75   V71.29V41.422h4.228V71.29c0,0.829,0.671,1.5,1.5,1.5l0,0c0,0,0,0,0,0h15.876V75.479z"/><path d="M26.934,79.17h-3.999c-0.829,0-1.5,0.671-1.5,1.5s0.671,1.5,1.5,1.5h3.999c0.829,0,1.5-0.671,1.5-1.5   S27.762,79.17,26.934,79.17z"/><path d="M14.323,79.17h-3.998c-0.829,0-1.5,0.671-1.5,1.5s0.671,1.5,1.5,1.5h3.998c0.829,0,1.5-0.671,1.5-1.5   S15.152,79.17,14.323,79.17z"/></g></svg>