<svg xmlns="http://www.w3.org/2000/svg" version="1.1" viewBox="-5.0 -10.0 110.0 110.0">
 <path d="m86.457 74.801c-0.035156 0.039063-0.074219 0.078125-0.11328 0.11328l-21.219 17.715c-1.9102 1.5977-4.0586 2.3711-6.5625 2.3711h-45.238c-0.60938 0-1.1016-0.49219-1.1016-1.1016 0-0.60938 0.49219-1.1016 1.1016-1.1016h45.238c1.9648 0 3.6484-0.60938 5.1484-1.8594l21.148-17.66c1.0117-1.1875 0.94531-2.9727-0.16406-4.0977-1.1289-1.1133-2.9531-1.1641-4.1406-0.10156-0.050782 0.046875-0.10547 0.085937-0.16406 0.12109l-17.82 10.75c-0.51953 1.6211-1.8516 2.9023-3.5664 3.3281-0.085937 0.019531-0.17578 0.03125-0.26562 0.03125l-12.898 0.003906c-0.60938 0-1.1016-0.49219-1.1016-1.1016 0-0.60938 0.49219-1.1016 1.1016-1.1016h12.75c1.1172-0.33203 1.918-1.3164 2.0078-2.4844 0.10547-1.1641-0.48047-2.2422-1.4648-2.7656h-10.398c-0.35547 0-0.6875-0.17188-0.89453-0.46094-1.8594-2.6016-8.7227-3.6289-12.664-1.1367l-8.0625 5.0586c-0.17578 0.10938-0.37891 0.16797-0.58594 0.16797h-8.2734c-0.60938 0-1.1016-0.49219-1.1016-1.1016s0.49219-1.1016 1.1016-1.1016h7.957l7.7891-4.8867c4.7812-3.0273 12.441-1.8281 15.258 1.2578h10.129c0.15234 0 0.30078 0.03125 0.44141 0.09375 1.5 0.65625 2.5508 1.9883 2.8789 3.5469l16.465-9.9336c2.0547-1.7578 5.1445-1.6523 7.0859 0.26172 1.9492 1.9766 2.0312 5.1211 0.19922 7.1758zm-31.676-43.012c0.60938 0 1.1016 0.49219 1.1016 1.1016v21.797c0 0.60938-0.49219 1.1016-1.1016 1.1016h-7.2578c-0.60938 0-1.1016-0.49219-1.1016-1.1016v-21.797c0-0.60938 0.49219-1.1016 1.1016-1.1016zm-1.0977 2.2031h-5.0547v19.594h5.0547zm12.312-8.6836c0.60938 0 1.1016 0.49219 1.1016 1.1016v28.277c0 0.60938-0.49219 1.1016-1.1016 1.1016h-7.2578c-0.60938 0-1.1016-0.49219-1.1016-1.1016v-28.277c0-0.60938 0.49219-1.1016 1.1016-1.1016zm-1.1016 2.2031h-5.0547v26.078h5.0547zm13.418-9.5273v36.703c0 0.60938-0.49219 1.1016-1.1016 1.1016h-7.2617c-0.60938 0-1.1016-0.49219-1.1016-1.1016v-36.703c0-0.60938 0.49219-1.1016 1.1016-1.1016h7.2578c0.60938 0 1.1055 0.49219 1.1055 1.1016zm-2.207 1.1016h-5.0547v34.504h5.0547zm-40.895 14.277c0.25 0 0.5-0.085937 0.70312-0.25781l9.2188-7.6875 7.875 1.7617c0.33203 0.074218 0.67969-0.007813 0.94141-0.22656l24.305-20c0.46875-0.38672 0.53516-1.082 0.14844-1.5508-0.38672-0.46875-1.0781-0.53516-1.5508-0.14844l-23.887 19.66-7.8789-1.7617c-0.33594-0.074219-0.68359 0.011718-0.94531 0.23047l-9.6367 8.0352c-0.46875 0.39062-0.52734 1.0859-0.14062 1.5508 0.21875 0.26172 0.53125 0.39453 0.84766 0.39453zm-13.203 35.605c-1.9805-1.9805-3.0664-4.6055-3.0625-7.3945 0.003907-2.7773 1.0938-5.3867 3.0625-7.3477 1.7031-1.7031 3.8945-2.7383 6.2656-2.9844v-44.559c0-0.60938 0.49219-1.1016 1.1016-1.1016s1.1016 0.49219 1.1016 1.1016l0.003907 44.566c1.707 0.17969 3.3242 0.77344 4.7305 1.7344v-15.105c0-0.60938 0.49219-1.1016 1.1016-1.1016h7.2578c0.60938 0 1.1016 0.49219 1.1016 1.1016v16.809c0 0.60938-0.49219 1.1016-1.1016 1.1016h-5.5586c0.94922 1.4023 1.5352 3.0117 1.7148 4.7109h44.547c0.60937 0 1.1016 0.49219 1.1016 1.1016 0 0.60938-0.49219 1.1016-1.1016 1.1016h-44.551c-0.25 2.3633-1.2891 4.5586-3 6.2656-1.9648 1.9648-4.5742 3.043-7.3555 3.043-2.7812 0.003906-5.3945-1.0781-7.3594-3.043zm15.406-15.383h5.0547v-14.605h-5.0547zm-16.262 7.9961c-0.003906 2.1992 0.85547 4.2695 2.4141 5.832 1.5469 1.5469 3.6055 2.3984 5.8008 2.3984 2.1914 0 4.2539-0.85156 5.8008-2.3984 1.5625-1.5625 2.418-3.6328 2.4141-5.832-0.003906-2.1875-0.85938-4.2422-2.4141-5.7891-1.5508-1.5508-3.6094-2.4023-5.8008-2.4023-2.1914 0-4.2539 0.85156-5.8008 2.3984-1.5547 1.5469-2.4141 3.6055-2.4141 5.793zm8.9141 2.7422h-3.3047c-0.60938 0-1.1016 0.49219-1.1016 1.1016s0.49219 1.1016 1.1016 1.1016h1.5117v0.36719c0 0.60938 0.49219 1.1016 1.1016 1.1016s1.1016-0.49219 1.1016-1.1016v-0.41016c1.4727-0.19922 2.6133-1.4453 2.6133-2.9609 0-1.668-1.3555-3.0234-3.0234-3.0234h-1.4023c-0.44141 0-0.80078-0.36719-0.80078-0.82031 0-0.44141 0.35938-0.79688 0.80078-0.79688h3.3281c0.60937 0 1.1016-0.49219 1.1016-1.1016s-0.49219-1.1016-1.1016-1.1016h-1.5117v-0.36719c0-0.60938-0.49219-1.1016-1.1016-1.1016s-1.1016 0.49219-1.1016 1.1016v0.40625c-1.4727 0.19141-2.6133 1.4414-2.6133 2.9648 0 1.668 1.3477 3.0234 3.0039 3.0234h1.4023c0.45313 0 0.82031 0.36719 0.82031 0.82031 0 0.42969-0.375 0.79688-0.82422 0.79688z"/></svg>