<svg xmlns="http://www.w3.org/2000/svg" viewBox="0 0 64 64" x="0px" y="0px"><title>guidance-guild-post-sign-way-choice</title><g><path d="M9,20a1,1,0,0,0-.707.293l-6,6a1,1,0,0,0,0,1.414l6,6A1,1,0,0,0,9,34H29V61a1,1,0,0,0,1,1h4a1,1,0,0,0,1-1V26H55a1,1,0,0,0,.707-.293l6-6a1,1,0,0,0,0-1.414l-6-6A1,1,0,0,0,55,12H35V3a1,1,0,0,0-1-1H30a1,1,0,0,0-1,1V4H9a1,1,0,0,0-.707.293l-6,6a1,1,0,0,0,0,1.414l6,6A1,1,0,0,0,9,18H29v2Zm.414,12-5-5,5-5H29V32ZM54.586,14l5,5-5,5H35V14ZM31,4h2V60H31ZM9.414,16l-5-5,5-5H29V16Z"/><rect x="10" y="10" width="4" height="2"/><rect x="16" y="10" width="11" height="2"/><rect x="10" y="26" width="11" height="2"/><rect x="23" y="26" width="4" height="2"/><rect x="37" y="18" width="9" height="2"/><rect x="48" y="18" width="6" height="2"/></g></svg>