<svg xmlns="http://www.w3.org/2000/svg" version="1.1" viewBox="-5.0 -10.0 110.0 110.0">
 <g>
  <path d="m88.316 30.969c-0.42578 0.42578-2.6211 2.7969-5.3711 5.8203l-15.414-1.8828c-0.48047-0.058594-0.95312 0.10938-1.293 0.44531l-2.6484 2.6484c-0.36719 0.36719-0.52734 0.89453-0.42969 1.4062 0.10156 0.51172 0.44922 0.9375 0.92969 1.1406l11.27 4.7383c-0.96094 1.0938-1.918 2.1914-2.8516 3.2734l-6.7578 0.14062c-0.40234 0.007812-0.78906 0.17188-1.0742 0.45703l-2.0703 2.0703c-0.37891 0.37891-0.53516 0.92188-0.42188 1.4414 0.11719 0.51953 0.48828 0.94531 0.99219 1.1289l6.8867 2.5117 2.5234 6.8984c0.18359 0.5 0.60937 0.875 1.1289 0.98828 0.11328 0.023438 0.22656 0.035157 0.33594 0.035157 0.41016 0 0.80859-0.16406 1.1055-0.45703l2.0703-2.0703c0.28516-0.28516 0.44922-0.67188 0.45703-1.0742l0.125-6.7695c1.082-0.92969 2.1797-1.8906 3.2773-2.8516l4.7383 11.281c0.20312 0.48047 0.62891 0.82813 1.1406 0.92969 0.51172 0.097656 1.0391-0.0625 1.4062-0.42969l2.6484-2.6484c0.33984-0.33984 0.50391-0.81641 0.44531-1.293l-1.8828-15.422c3.1758-2.8828 5.4375-4.9805 5.8203-5.3633 0.94531-0.94531 1.4688-2.207 1.4688-3.5469s-0.51953-2.6016-1.4688-3.5469c-1.9531-1.9531-5.1367-1.9531-7.0938 0zm4.8828 4.8828c-0.33984 0.33594-2.7344 2.5664-6.2578 5.7578-0.40625 0.33984-0.61719 0.86328-0.55078 1.3906l1.8867 15.469-0.46484 0.46484-4.6797-11.141c-0.19531-0.46484-0.60156-0.80469-1.0938-0.91797-0.48828-0.11328-1.0078 0.019531-1.3828 0.35156-1.793 1.5859-3.6289 3.1953-5.4062 4.7188-0.33984 0.28906-0.53906 0.71094-0.54688 1.1562l-0.12109 6.4531-1.8242-5.0039c-0.15625-0.43359-0.5-0.77344-0.92969-0.93359l-4.9922-1.8203 6.4375-0.13281c0.44531-0.007812 0.86328-0.20703 1.1562-0.54687 1.5234-1.7773 3.1328-3.6133 4.7148-5.4062 0.33203-0.375 0.46484-0.89063 0.35156-1.3828-0.11328-0.49219-0.45312-0.89844-0.91797-1.0938l-11.133-4.6797 0.46484-0.46484 15.461 1.8906c0.5 0.0625 1.0078-0.12891 1.3516-0.50391 3.0469-3.3516 5.4375-5.9297 5.8086-6.3047 0.73828-0.73438 1.9375-0.73438 2.6719 0 0.35547 0.35547 0.55078 0.83203 0.55078 1.3359 0 0.50391-0.19531 0.98047-0.55078 1.3359z"/>
  <path d="m83.562 62.102c-0.80078-0.32422-1.7109 0.054688-2.0391 0.85156-5.2617 12.84-17.633 21.141-31.523 21.141-4.9336 0-9.6914-1.0352-14.148-3.0781-0.78125-0.35938-1.7109-0.015625-2.0703 0.76953s-0.015625 1.7109 0.76953 2.0703c4.8672 2.2305 10.062 3.3594 15.449 3.3594 15.164 0 28.672-9.0586 34.414-23.078 0.32813-0.79688-0.054687-1.7109-0.85156-2.0391z"/>
  <path d="m14.094 84.34c4.3398 0 9.8438-1.1406 16.316-3.4297 9.3438-3.3086 19.68-8.6484 29.891-15.438 2.6523-1.7578 5.3164-3.6484 7.9219-5.6172 0.6875-0.51953 0.82422-1.5 0.30469-2.1875-0.51953-0.6875-1.5-0.82422-2.1875-0.30469-2.5547 1.9297-5.1641 3.7852-7.7656 5.5078-10 6.6484-20.098 11.871-29.203 15.094-11.422 4.0352-20.004 4.3047-22.398 0.69922-2.1992-3.3008 0.60156-10.129 7.3203-18.141 0.26172 0.89062 0.55078 1.7656 0.87109 2.6094 1.9922 5.2656 5.2109 10.09 9.3125 13.945 0.30078 0.28516 0.6875 0.42188 1.0703 0.42188 0.41406 0 0.83203-0.16406 1.1406-0.49219 0.58984-0.62891 0.5625-1.6172-0.066406-2.2109-3.7578-3.5312-6.707-7.9492-8.5312-12.781-0.61719-1.6133-1.1133-3.3281-1.4766-5.1016-0.46484-2.25-0.70312-4.5781-0.70312-6.918 0-5.5508 1.3398-10.789 3.7031-15.422l2.7734 4.0547 0.003906-0.003906c0.22656 0.32422 0.56641 0.56641 0.96094 0.65625l5.582 1.3086c0.3125 0.0625 0.73047 0.30859 0.79688 0.38281l2.3398 3.3164c-0.28906 0.5-0.4375 1.0469-0.43359 1.5156l-0.47266 6.7656c0 0.48438 0.22266 0.9375 0.60156 1.2344l3.9961 3.1055c0.10547 0.082032 0.33594 0.30859 0.1875 0.61328l-1.4961 3.0391c-0.25 0.50391-0.38281 1.0508-0.38281 1.5859v6.1875c0 0.38672 0.20703 0.88281 0.46484 1.1719 0.97266 1.0742 2.2188 1.6602 3.5234 1.6602 0.058594 0 0.11328 0 0.17188-0.003907 1.2227-0.046874 2.3398-0.61328 3.0703-1.5625l5.4727-7.2812s0.066406-0.082031 0.22656-0.17969l5.9844-3.7969c0.80078-0.50781 1.7578-1.5195 1.7578-3.4453v-3.4531c0-1.0273-0.60547-1.9805-1.582-2.4844-4.0625-2.082-7.1328-5.2773-8.2734-6.5664-0.75391-0.83203-1.8672-1.3086-3.0469-1.3086h-3.3984l-1.1289-2.2344 0.37891-0.3125c0.84375-0.69531 1.3203-1.6719 1.3438-2.7656l0.046875-6.7734c0-0.1875 0.17969-0.39844 0.42969-0.50781l8.9141-3.8281c1.3398-0.57812 2.3555-1.6602 2.7891-2.9766 0.41406-1.2539 0.26562-2.5781-0.41016-3.7344l-1.1875-2.0391c0.13281 0 0.26172-0.007812 0.39453-0.007812 12.719 0 24.289 7.0078 30.195 18.289 0.39844 0.76563 1.3438 1.0625 2.1094 0.66016 0.76562-0.39844 1.0586-1.3438 0.66016-2.1094-6.4453-12.312-19.074-19.961-32.961-19.961-13.438 0-25.238 7.1602-31.781 17.867-0.058594 0.078125-0.10156 0.15625-0.14453 0.24219-3.3594 5.5898-5.293 12.125-5.293 19.109 0 2.2812 0.21875 4.5547 0.625 6.7695-9.1367 10.27-12.355 18.648-9.0391 23.625 1.7461 2.6289 5.0664 3.9453 9.7266 3.9453zm32.02-68.207 1.9844 3.3984c0.27734 0.47656 0.22656 0.90625 0.13672 1.1797-0.15234 0.46094-0.53516 0.85547-1.0547 1.0781l-8.918 3.832c-1.4062 0.61328-2.3164 1.9375-2.3164 3.3672l-0.046874 6.7422c-0.003907 0.15625-0.070313 0.28906-0.20703 0.40234l-1.3398 1.1094c-0.5625 0.46484-0.72656 1.2578-0.39844 1.9062l2.125 4.2109c0.070313 0.14453 0.16797 0.26562 0.27734 0.37891 0.015625 0.015625 0.03125 0.027344 0.050781 0.042969 0.125 0.11719 0.26562 0.21094 0.41797 0.28125 0.023437 0.011719 0.042969 0.023438 0.070312 0.03125 0.16016 0.0625 0.32812 0.11328 0.50781 0.12109 0 0 0.32812 0.015625 0.34375 0.015625 0.03125 0 0.054687-0.015625 0.085937-0.015625h4.0039c0.29687 0 0.57031 0.10547 0.72266 0.27344 1.2383 1.3984 4.5859 4.875 9.0586 7.1992v3.2188c0 0.61328-0.18359 0.72656-0.30469 0.80469l-5.9727 3.7891c-0.41797 0.26172-0.76562 0.57031-1.0469 0.93359l-5.4727 7.2812c-0.15234 0.19531-0.41406 0.32031-0.70703 0.33203-0.30078 0.015625-0.60938-0.09375-0.91406-0.32422v-5.5703c0-0.03125 0.011719-0.10547 0.058593-0.19922l1.5-3.0469c0.75391-1.5352 0.32031-3.3672-1.0703-4.4531l-3.3438-2.5977 0.41016-5.8242c0-0.035156 0.039063-0.16016 0.039063-0.19531 0.054687-0.082032 0.10156-0.17188 0.14062-0.26563l0.35938-0.85937c0.20703-0.49609 0.14453-1.0625-0.16406-1.5039l-2.8828-4.082c-0.66016-0.85938-1.832-1.4219-2.6484-1.5859l-4.9648-1.1641-3.2852-4.8086c5.4102-8.3828 14.387-14.25 24.773-15.438z"/>
 </g></svg>