<svg xmlns="http://www.w3.org/2000/svg" version="1.1" viewBox="-5.0 -10.0 110.0 110.0">
 <path d="m98.895 54.551-8.5273-20.746c-0.21875-0.52734-0.73438-0.875-1.3047-0.875h-25.453l-12.199-9.9805v-6.5977c0.70703 0.25781 1.3594 0.35938 1.9609 0.35938 1.2734 0 2.3164-0.45313 3.1953-0.83594 1.5547-0.67578 2.5781-1.1211 4.7305 0.32422 0.43359 0.28906 0.98828 0.32031 1.4492 0.074219 0.46094-0.24609 0.74609-0.72266 0.74609-1.2461l-0.003907-8.0039c0-0.46875-0.23438-0.90625-0.62109-1.1719-3.4336-2.3086-5.7422-1.3047-7.4297-0.57031-1.5703 0.68359-2.5156 1.0977-4.5938-0.45703-0.42969-0.32031-1-0.37109-1.4766-0.13281-0.47656 0.23828-0.77734 0.72656-0.77734 1.2617v16.992l-12.199 9.9805-25.453 0.003907c-0.57031 0-1.0859 0.34375-1.3047 0.875l-8.5273 20.746c-0.17969 0.43359-0.12891 0.92969 0.13281 1.3203s0.69922 0.625 1.1719 0.625h4.1367v37.672c0 0.77734 0.63281 1.4102 1.4102 1.4102h84.094c0.77734 0 1.4102-0.63281 1.4102-1.4102l-0.007813-37.672h4.1367c0.46875 0 0.91016-0.23438 1.1719-0.625s0.3125-0.88672 0.13281-1.3203zm-70.02 33.293v-2.0938h42.25v2.0938zm24.984-4.9102h-7.7188v-12.004h7.7188zm15.375 0h-12.555v-13.418c0-0.77734-0.63281-1.4102-1.4102-1.4102h-10.539c-0.77734 0-1.4102 0.63281-1.4102 1.4102v13.414l-12.555 0.003906v-34.566h38.469zm1.4102-37.383h-45.223l24.574-20.109 24.582 20.109zm-14.082-37.68c1.3945-0.60547 2.3633-1.0273 4.1055-0.058594v4.9414c-2.2656-0.75-3.9336-0.023437-5.2305 0.53906-1.4219 0.61719-2.3281 1.0156-4.0273-0.0625l-0.003906-4.8828c2.2109 0.80469 3.8633 0.085938 5.1562-0.47656zm-44.68 27.879h21.062l-12.371 10.117c-0.46094 0.37891-0.63672 1.0039-0.43359 1.5664 0.19922 0.5625 0.73047 0.9375 1.3281 0.9375h6.4766v5.3047h-23.43zm-2.5156 20.746h18.578v26.438h-0.48047c-0.77734 0-1.4102 0.63281-1.4102 1.4102v3.5039h-2.8672c-0.77734 0-1.4102 0.63281-1.4102 1.4102v3.5039l-12.41-0.003907zm61.277 36.262h-46.051v-2.0938h50.809v2.0938zm19.988 0h-12.41v-3.5039c0-0.77734-0.63281-1.4102-1.4102-1.4102h-2.8672v-3.5039c0-0.77734-0.63281-1.4102-1.4102-1.4102h-0.48047v-26.434h18.578zm-18.578-39.082v-5.3047h6.4766c0.59766 0 1.1289-0.375 1.3281-0.9375s0.027344-1.1875-0.43359-1.5664l-12.371-10.117h21.062l7.3672 17.926zm-22.059-21.484c-2.7344 0-4.9609 2.2266-4.9609 4.9648 0 2.7344 2.2266 4.9609 4.9609 4.9609 2.7383 0 4.9648-2.2266 4.9648-4.9609 0-2.7383-2.2266-4.9648-4.9648-4.9648zm0 7.1016c-1.1797 0-2.1406-0.96094-2.1406-2.1406 0-1.1836 0.96094-2.1445 2.1406-2.1445 1.1836 0 2.1445 0.96094 2.1445 2.1445s-0.96094 2.1406-2.1445 2.1406zm-14.934 23.281h6.1406c0.77734 0 1.4102-0.63281 1.4102-1.4102v-6.1445c0-0.77734-0.63281-1.4102-1.4102-1.4102h-6.1406c-0.77734 0-1.4102 0.63281-1.4102 1.4102v6.1445c0 0.78125 0.62891 1.4102 1.4102 1.4102zm1.4102-6.1445h3.3203v3.3242h-3.3203zm10.457 6.1445h6.1445c0.77734 0 1.4102-0.63281 1.4102-1.4102v-6.1445c0-0.77734-0.63281-1.4102-1.4102-1.4102h-6.1445c-0.77734 0-1.4102 0.63281-1.4102 1.4102v6.1445c-0.003906 0.78125 0.62891 1.4102 1.4102 1.4102zm1.4102-6.1445h3.3242v3.3242h-3.3242zm10.457 6.1445h6.1406c0.77734 0 1.4102-0.63281 1.4102-1.4102v-6.1445c0-0.77734-0.63281-1.4102-1.4102-1.4102h-6.1406c-0.77734 0-1.4102 0.63281-1.4102 1.4102v6.1445c0 0.78125 0.63281 1.4102 1.4102 1.4102zm1.4102-6.1445h3.3203v3.3242h-3.3203zm-46.73 5.8398c0-0.77734 0.63281-1.4102 1.4102-1.4102h7.543c0.77734 0 1.4102 0.63281 1.4102 1.4102 0 0.77734-0.63281 1.4102-1.4102 1.4102h-7.543c-0.78125 0-1.4102-0.63281-1.4102-1.4102zm0 5.6602c0-0.77734 0.63281-1.4102 1.4102-1.4102h7.543c0.77734 0 1.4102 0.63281 1.4102 1.4102 0 0.77734-0.63281 1.4102-1.4102 1.4102h-7.543c-0.78125 0-1.4102-0.62891-1.4102-1.4102zm0 5.668c0-0.77734 0.63281-1.4102 1.4102-1.4102h7.543c0.77734 0 1.4102 0.63281 1.4102 1.4102s-0.63281 1.4102-1.4102 1.4102h-7.543c-0.78125 0-1.4102-0.63281-1.4102-1.4102zm1.4102 7.0703c-0.77734 0-1.4102-0.63281-1.4102-1.4102 0-0.77734 0.63281-1.4102 1.4102-1.4102h7.543c0.77734 0 1.4102 0.63281 1.4102 1.4102 0 0.77734-0.63281 1.4102-1.4102 1.4102zm61.273-18.398c0-0.77734 0.63281-1.4102 1.4102-1.4102h7.543c0.77734 0 1.4102 0.63281 1.4102 1.4102 0 0.77734-0.63281 1.4102-1.4102 1.4102h-7.543c-0.77734 0-1.4102-0.63281-1.4102-1.4102zm0 5.6602c0-0.77734 0.63281-1.4102 1.4102-1.4102h7.543c0.77734 0 1.4102 0.63281 1.4102 1.4102 0 0.77734-0.63281 1.4102-1.4102 1.4102h-7.543c-0.77734 0-1.4102-0.62891-1.4102-1.4102zm0 5.668c0-0.77734 0.63281-1.4102 1.4102-1.4102h7.543c0.77734 0 1.4102 0.63281 1.4102 1.4102s-0.63281 1.4102-1.4102 1.4102h-7.543c-0.77734 0-1.4102-0.63281-1.4102-1.4102zm0 5.6602c0-0.77734 0.63281-1.4102 1.4102-1.4102h7.543c0.77734 0 1.4102 0.63281 1.4102 1.4102 0 0.77734-0.63281 1.4102-1.4102 1.4102h-7.543c-0.77734 0-1.4102-0.63281-1.4102-1.4102z"/></svg>