<svg xmlns="http://www.w3.org/2000/svg" version="1.1" viewBox="-5.0 -10.0 110.0 110.0">
 <path d="m93.926 54.898h-37.473v-38.699c0-0.59375-0.48047-1.0742-1.0742-1.0742h-5.5781v-8.5c0-0.32812-0.14844-0.63672-0.40625-0.83984-0.25391-0.20703-0.58594-0.28125-0.90625-0.21094l-42.629 9.5625h-0.015625l-0.027344 0.007812c-0.023437 0.007813-0.046875 0.011719-0.070312 0.019531l-0.035156 0.011719c-0.019532 0.007813-0.039063 0.015625-0.0625 0.023438l-0.046876 0.023437c-0.015624 0.007813-0.03125 0.015625-0.046874 0.023438-0.015626 0.007812-0.03125 0.019531-0.050782 0.03125l-0.039062 0.023437-0.050782 0.035157-0.035156 0.027343-0.042968 0.039063-0.03125 0.03125-0.039063 0.042968-0.03125 0.035157-0.03125 0.039062-0.03125 0.046875-0.023437 0.039063c-0.011719 0.015625-0.019532 0.035156-0.027344 0.050781l-0.019532 0.039062c-0.007812 0.019532-0.015624 0.035157-0.023437 0.054688s-0.011719 0.027344-0.015625 0.042969-0.011719 0.035156-0.019531 0.054687c-0.003907 0.019532-0.007813 0.035156-0.011719 0.050782-0.003906 0.015624-0.007812 0.03125-0.011719 0.050781-0.003906 0.015625-0.007812 0.042969-0.007812 0.0625-0.003907 0.019531 0 0.027343-0.007813 0.039062-0.007812 0.015625 0 0.046875 0 0.070313v0.03125l0.003906 63.852c0 0.28906 0.11328 0.5625 0.31641 0.76172 0.20312 0.20312 0.47656 0.31641 0.76172 0.31641h27.645v12.273c0 0.28516 0.11328 0.55859 0.31641 0.76172 0.20312 0.19922 0.47656 0.3125 0.76172 0.3125h59.117c0.59375 0 1.0742-0.48047 1.0742-1.0742v-37.414c-0.003906-0.59375-0.48438-1.0742-1.0742-1.0742zm-46.273-39.785h-31.875l31.875-7.1562zm-40.5 63.848v-61.695h47.148v37.633h-19.492c-0.59375 0-1.0781 0.48437-1.0781 1.0781v22.988zm85.699 13.352h-56.969v-35.266h56.965zm-38.527-19.039c0.45312-1.2695 0.25781-2.6836-0.51953-3.7852-0.78125-1.1055-2.0469-1.7617-3.3945-1.7617-1.3516 0-2.6172 0.65625-3.3984 1.7617-0.77734 1.1016-0.96875 2.5156-0.51953 3.7852-2.6719 1.4453-4.3398 4.2383-4.3438 7.2773 0 0.28516 0.11328 0.55859 0.3125 0.76172 0.20312 0.19922 0.47656 0.3125 0.76172 0.3125h14.371c0.28516 0 0.55859-0.11328 0.76172-0.3125 0.19922-0.20312 0.3125-0.47656 0.3125-0.76172-0.003907-3.0391-1.6719-5.8281-4.3438-7.2773zm-3.9141-3.3945-0.003906 0.003906c0.8125 0 1.5391 0.48828 1.8477 1.2344 0.3125 0.74609 0.14062 1.6055-0.43359 2.1797-0.57031 0.57031-1.4297 0.74219-2.1758 0.43359-0.75-0.30859-1.2383-1.0391-1.2383-1.8477 0-1.1055 0.89844-2 2-2zm-6.0156 9.5938v0.003906c0.34766-1.9219 1.5859-3.5586 3.3359-4.418 1.5469 1.3086 3.8086 1.3086 5.3555 0 1.75 0.85938 2.9883 2.4961 3.3359 4.418zm-4.9844 7.2773h22v0.003906c0.28516 0 0.55859-0.11328 0.75781-0.31641 0.20312-0.20312 0.31641-0.47656 0.31641-0.76172v-22c0-0.28516-0.11328-0.55859-0.31641-0.76172-0.19922-0.20312-0.47656-0.31641-0.76172-0.3125h-22c-0.28516 0-0.55859 0.10938-0.76172 0.3125-0.19922 0.20313-0.3125 0.47656-0.3125 0.76172v22c0 0.28516 0.11328 0.55859 0.3125 0.76172 0.20312 0.20312 0.47656 0.31641 0.76562 0.31641zm1.0742-22 19.848 0.003906v19.848h-19.848zm25.035 22 23.586 0.003906c0.28516 0 0.55859-0.11328 0.76172-0.31641 0.20312-0.20312 0.31641-0.47656 0.31641-0.76172v-6.2109 0.003906c0-0.59766-0.48438-1.0781-1.0781-1.0781h-23.586c-0.59375 0-1.0781 0.48047-1.0781 1.0781v6.2109-0.003907c0 0.59375 0.48438 1.0781 1.0781 1.0781zm1.0742-6.2109 21.438 0.003907v4.0586h-21.438zm-2.1523-16.5v0.003907c0-0.28516 0.11328-0.55859 0.31641-0.76172 0.20313-0.20312 0.47656-0.31641 0.76172-0.31641h23.586c0.29297-0.007813 0.57422 0.10156 0.78125 0.30469 0.21094 0.20312 0.32812 0.48047 0.32812 0.77344 0 0.28906-0.11719 0.56641-0.32812 0.76953-0.20703 0.20312-0.48828 0.3125-0.78125 0.30469h-23.586c-0.28516 0-0.5625-0.11328-0.76172-0.31641-0.20312-0.20312-0.31641-0.47656-0.31641-0.76172zm0 4.7891c0-0.28516 0.11328-0.55859 0.31641-0.75781 0.20313-0.20312 0.47656-0.31641 0.76172-0.31641h23.586c0.59375 0 1.0781 0.48047 1.0781 1.0742 0 0.59766-0.48438 1.0781-1.0781 1.0781h-23.586c-0.28516 0-0.5625-0.11328-0.76172-0.31641-0.20312-0.20312-0.31641-0.47656-0.31641-0.76562zm0 4.7891c0-0.28516 0.11328-0.55859 0.31641-0.75781 0.20313-0.20312 0.47656-0.31641 0.76172-0.31641h23.586c0.29297-0.007813 0.57422 0.10156 0.78125 0.30469 0.21094 0.19922 0.32812 0.48047 0.32812 0.76953 0 0.29297-0.11719 0.57031-0.32812 0.77344-0.20703 0.20312-0.48828 0.3125-0.78125 0.30469h-23.586c-0.28516 0-0.5625-0.11328-0.76172-0.31641-0.20312-0.20312-0.31641-0.48047-0.31641-0.76562zm-18.051-37.066c0-4.1562-1.6484-8.1406-4.5859-11.078s-6.9219-4.5859-11.078-4.5859c-4.1523 0-8.1367 1.6484-11.074 4.5859s-4.5898 6.9219-4.5898 11.074c0 4.1562 1.6523 8.1406 4.5898 11.078s6.9219 4.5859 11.074 4.5859c4.1523-0.003907 8.1328-1.6562 11.07-4.5898 2.9375-2.9375 4.5898-6.918 4.5938-11.07zm-5.75 9.168c-1.2148-1-2.5742-1.8086-4.0312-2.4023 0.34766-1.8789 0.54688-3.7812 0.59766-5.6953h6.9844c-0.23828 3.0234-1.4883 5.875-3.5508 8.0977zm-13.266-0.96484h-0.003906c2.2031-0.56641 4.5117-0.56641 6.7109 0-0.91016 3.3672-2.2812 5.3086-3.3555 5.3086-1.0742 0-2.4414-1.9414-3.3555-5.3086zm-0.39844 4.7734h-0.003906c-1.6562-0.48047-3.2031-1.2734-4.5586-2.3398 0.89453-0.69922 1.875-1.2812 2.918-1.7383 0.36328 1.4297 0.91406 2.7969 1.6445 4.0781zm3.7539-26.488c1.0742 0 2.4453 1.9414 3.3555 5.3086h-0.007813c-2.1992 0.56641-4.5078 0.56641-6.707 0 0.91406-3.3672 2.2812-5.3086 3.3555-5.3086zm-5.3945 4.6094h-0.003907c-1.043-0.45313-2.0234-1.0391-2.918-1.7383 1.3555-1.0625 2.9023-1.8555 4.5586-2.3359-0.72656 1.2773-1.2773 2.6484-1.6406 4.0742zm9.1484-4.0742h-0.007813c1.6562 0.48047 3.2031 1.2734 4.5625 2.3359-0.89844 0.69922-1.8789 1.2852-2.9219 1.7383-0.35938-1.4258-0.91016-2.7969-1.6367-4.0742zm-3.7539 7.3516-0.003907-0.003906c1.2891 0 2.5742-0.16016 3.8242-0.47266 0.29297 1.6602 0.46094 3.3398 0.5 5.0234h-8.6523c0.042968-1.6836 0.20703-3.3633 0.5-5.0234 1.2539 0.3125 2.5391 0.47266 3.8281 0.47266zm4.3242 6.6992-0.003907-0.003906c-0.039062 1.6875-0.20703 3.3672-0.5 5.0273-2.5117-0.63281-5.1367-0.63281-7.6484 0-0.29297-1.6602-0.46094-3.3398-0.5-5.0273zm1.0664 7.8242h-0.003906c1.043 0.45312 2.0234 1.0352 2.9219 1.7383-1.3594 1.0625-2.9062 1.8555-4.5625 2.3359 0.73047-1.2773 1.2812-2.6484 1.6445-4.0742zm8.0703-9.9766h-6.9844c-0.050781-1.9141-0.25391-3.8164-0.60156-5.6953 1.457-0.59375 2.8164-1.4023 4.0312-2.4023 2.0625 2.2227 3.3164 5.0781 3.5547 8.0977zm-23.379-8.0898c1.2188 1 2.5781 1.8086 4.0352 2.3984-0.35156 1.8828-0.55078 3.7891-0.60156 5.6992h-6.9844c0.23828-3.0195 1.4922-5.875 3.5508-8.0977zm-3.5508 10.242h6.9844c0.050781 1.9141 0.25391 3.8203 0.60156 5.6992-1.457 0.59375-2.8164 1.4023-4.0312 2.4023-2.0625-2.2227-3.3164-5.0781-3.5547-8.1016zm10.863 20.953c0 0.59375-0.48047 1.0742-1.0742 1.0742h-11.223c-0.28906 0.007812-0.57031-0.10156-0.78125-0.30078-0.20703-0.20312-0.32422-0.48437-0.32422-0.77344 0-0.29297 0.11719-0.57031 0.32422-0.77344 0.21094-0.20313 0.49219-0.3125 0.78125-0.30078h11.223c0.28516-0.003906 0.55859 0.10938 0.75781 0.3125 0.20312 0.20312 0.31641 0.47656 0.31641 0.76172zm0 6.5625c0 0.59375-0.48047 1.0742-1.0742 1.0742h-11.223c-0.28906 0.007812-0.57031-0.10156-0.78125-0.30469-0.20703-0.19922-0.32422-0.48047-0.32422-0.76953 0-0.29297 0.11719-0.57031 0.32422-0.77344 0.21094-0.20313 0.49219-0.3125 0.78125-0.30469h11.223c0.28516 0 0.55859 0.11328 0.75781 0.31641 0.20312 0.20312 0.31641 0.47656 0.31641 0.76172zm0 6.5625v-0.003906c0 0.59766-0.48047 1.0781-1.0742 1.0781h-11.223c-0.28906 0.007812-0.57031-0.10156-0.78125-0.30469-0.20703-0.20312-0.32422-0.48047-0.32422-0.76953 0-0.29297 0.11719-0.57031 0.32422-0.77344 0.21094-0.20313 0.49219-0.3125 0.78125-0.30469h11.223c0.28516 0 0.55859 0.11328 0.75781 0.31641 0.20312 0.19922 0.31641 0.47266 0.31641 0.75781z"/></svg>