<svg xmlns="http://www.w3.org/2000/svg" data-name="Layer 2" viewBox="0 0 64 64" x="0px" y="0px"><path d="M7,49.5h17c.55273,0,1-.44775,1-1s-.44727-1-1-1H7c-1.6543,0-3-1.3457-3-3V8.5c0-1.6543,1.3457-3,3-3h26c1.6543,0,3,1.3457,3,3v4c0,.55225.44727,1,1,1s1-.44775,1-1v-4c0-2.75684-2.24316-5-5-5H7c-2.75684,0-5,2.24316-5,5v36c0,2.75684,2.24316,5,5,5Z" style="" stroke-width=" 0px"/><path d="M25.78223,12.25732c-.07355-.63251-.80341-1.04419-1.38184-.77832-.30273.12842-.73438.00586-.9248-.26318-1.5351-2.27173-5.05939-2.22443-6.66797-.03467-2.41687.03925-2.70471,3.2041-.94727,4.51202v1.14667c-.01959,1.63367,1.0033,3.18219,2.5011,3.80719-2.30853.40955-4.07141,2.4234-4.07141,4.85297,0,.55225.44727,1,1,1h8.70996c1.31213-.02155,1.31635-1.97772-.00006-2,.00006,0-7.5351,0-7.5351,0,.4082-1.13037,1.48926-1.93994,2.75488-1.93994h1.58008c.94727,0,1.83887.45947,2.38477,1.229.32031.44971.94336.55615,1.39453.23633,1.53992-1.41431-1.68042-3.24103-2.92047-3.38092,1.83868-.77679,2.68878-2.67035,2.50153-4.66315,1.21515-.7868,1.82776-2.26782,1.62207-3.724ZM22.16016,16.83984c.0578,1.86652-2.40015,2.87408-3.67291,1.52234-.7876-.73877-.70581-2.02881-.51263-2.99011.26959-.22546.59424-.04358,1.04492.18646.90729.58862,1.98492,1.22992,3.14062,1.08618v.19513ZM20.48242,14.10828c-1.13531-.77795-2.56537-1.2243-3.67871-.36707-.09552-.17181-.12323-.4339-.0332-.54199.47418.27686,1.13409.0744,1.37402-.41846.68976-1.41882,2.77283-1.75452,3.69629-.41302.4375.62103,1.12598,1.01703,1.8584,1.12982-.49493,1.33344-2.20105,1.46417-3.2168.61072Z" style="" stroke-width=" 0px"/><path d="M30,13.58008c.55273,0,1-.44775,1-1v-2.08008c0-2.20557-1.79395-4-4-4h-14c-2.20605,0-4,1.79443-4,4v15c0,2.20557,1.79395,4,4,4h11c1.31464-.02673,1.31573-1.97485-.00006-2,.00006,0-10.99994,0-10.99994,0-1.10254,0-2-.89697-2-2v-15c0-1.10303.89746-2,2-2h14c1.10254,0,2,.89697,2,2v2.08008c0,.55225.44727,1,1,1Z" style="" stroke-width=" 0px"/><path d="M18,32.5c0-.55225-.44727-1-1-1H7c-.55273,0-1,.44775-1,1s.44727,1,1,1h10c.55273,0,1-.44775,1-1Z" style="" stroke-width=" 0px"/><path d="M14,35.5h-7c-1.31244.02142-1.31604,1.97784.00006,2-.00006,0,6.99994,0,6.99994,0,1.31244-.02148,1.31604-1.97791,0-2Z" style="" stroke-width=" 0px"/><path d="M7,39.5c-1.31244.02142-1.31604,1.97784.00006,2-.00006,0,6.99994,0,6.99994,0,1.31244-.02148,1.31604-1.97791,0-2h-7Z" style="" stroke-width=" 0px"/><path d="M23.71478,30.83154c-7.57697,2.24493-7.57477,13.09357.00006,15.33691,1.25818.35406,1.82892-1.51672.57025-1.91699-5.67163-1.64886-5.66992-9.8551.00018-11.50293,1.25079-.39069.69647-2.27411-.5705-1.91699Z" style="" stroke-width=" 0px"/><path d="M24.49323,35.91022c1.13171-.66724.16962-2.36774-.98639-1.7403-1.10614.53259-3.21759,2.90729-.96771,3.33014.92926-.00623,1.1145-1.26666,1.9541-1.58984Z" style="" stroke-width=" 0px"/><path d="M21.66895,41.00781c.55817.85834,1.31329,1.78644,2.33002,1.95221.99005.03729,1.38812-1.41217.48737-1.8736-.43848-.24414-.81641-.62256-1.09473-1.09424-.68707-1.12274-2.37042-.12732-1.72266,1.01562Z" style="" stroke-width=" 0px"/><path d="M57,14.5h-26c-2.75684,0-5,2.24316-5,5v36c0,2.75684,2.24316,5,5,5h26c2.75684,0,5-2.24316,5-5V19.5c0-2.75684-2.24316-5-5-5ZM60,55.5c0,1.6543-1.3457,3-3,3h-26c-1.6543,0-3-1.3457-3-3V19.5c0-1.6543,1.3457-3,3-3h26c1.6543,0,3,1.3457,3,3v36Z" style="" stroke-width=" 0px"/><path d="M37,40.5h14c2.20605,0,4-1.79443,4-4v-15c0-2.20557-1.79395-4-4-4h-14c-2.20605,0-4,1.79443-4,4v15c0,2.20557,1.79395,4,4,4ZM35,21.5c0-1.10303.89746-2,2-2h14c1.10254,0,2,.89697,2,2v15c0,1.10303-.89746,2-2,2h-14c-1.10254,0-2-.89697-2-2v-15Z" style="" stroke-width=" 0px"/><path d="M41,42.5h-10c-1.31146.02112-1.31683,1.97778.00006,2-.00006,0,9.99994,0,9.99994,0,1.31146-.02118,1.31683-1.97778,0-2Z" style="" stroke-width=" 0px"/><path d="M38,46.5h-7c-1.31244.02142-1.31604,1.97784.00006,2-.00006,0,6.99994,0,6.99994,0,1.31244-.02148,1.31604-1.97791,0-2Z" style="" stroke-width=" 0px"/><path d="M38,50.5h-7c-1.31244.02142-1.31604,1.97784.00006,2-.00006,0,6.99994,0,6.99994,0,1.31244-.02148,1.31604-1.97791,0-2Z" style="" stroke-width=" 0px"/><path d="M50,41.5c-4.41113,0-8,3.58887-8,8,.43958,10.61304,15.56207,10.60999,16-.00006,0-4.41107-3.58887-7.99994-8-7.99994ZM50,55.5c-3.30859,0-6-2.69141-6-6,.28149-7.9411,11.71973-7.93909,12,.00006,0,3.30853-2.69141,5.99994-6,5.99994Z" style="" stroke-width=" 0px"/><path d="M50,44.5c-1.78125,0-3.43945.9585-4.32715,2.50146-.27539.47852-.11035,1.08984.36816,1.36523.47949.27441,1.08887.10986,1.36621-.36816,1.05438-1.96985,4.13135-1.9696,5.18555.00006.27747.48328.89539.64075,1.36621.3681.47852-.27539.64355-.88672.36816-1.36523-.8877-1.54297-2.5459-2.50146-4.32715-2.50146Z" style="" stroke-width=" 0px"/><path d="M53.97754,50.63867c-1.22925-.66711-1.53845,1.08069-2.46387,1.44775-.48242.26855-.65625.87744-.3877,1.35986,1.02063,1.39929,2.59357-.46338,3.20508-1.43842.28027-.47614.12207-1.08893-.35352-1.3692Z" style="" stroke-width=" 0px"/><path d="M48.48633,52.08643c-.43848-.24414-.81641-.62256-1.09473-1.09424-.6861-1.12286-2.37079-.12744-1.72266,1.01562.55817.85834,1.31329,1.78644,2.33002,1.95221.99005.03729,1.38812-1.41217.48737-1.8736Z" style="" stroke-width=" 0px"/><path d="M53,49.5c0-.55225-.44727-1-1-1h-4c-.55273,0-1,.44775-1,1s.44727,1,1,1h4c.55273,0,1-.44775,1-1Z" style="" stroke-width=" 0px"/><path d="M41.09857,32.06152c-1.65753.79761-2.81342,2.47925-2.81342,4.43848,0,.55225.44727,1,1,1h9.45215c.55273,0,1-.44775,1-1,0-1.96277-1.15967-3.6474-2.82202-4.44318,2.42859-.77649,4.08472-2.5014,4.08472-4.55682,0-2.76416-3.13574-7-7-7s-7,4.23584-7,7c0,2.05939,1.66229,3.78717,4.09857,4.56152ZM47.5625,35.5h-7.10254c.41016-1.12939,1.49414-1.93848,2.76367-1.93848h1.5752c1.26953,0,2.35352.80908,2.76367,1.93848ZM42.00977,27.99023v-1.32617c.16504-.10596.3418-.20459.53125-.29639.89832.97925,2.27606.90027,3.46875.86377v.75879c-.07007,2.64075-3.93286,2.63245-4,0ZM44,22.5c2.73633,0,5,3.31055,5,5,0,.74536-.4964,1.42999-1.27875,1.96136.38763-.79211.27429-2.12982.28851-3.0014-.18146-1.55035-2.28027-1.1615-3.34271-1.21832-.38873-.02191-.66119-.20111-.68658-.27094-.06976-.60242-.73462-1.01453-1.30664-.80957-1.15955.49121-2.74884.91083-2.66412,2.33881.01849.87909-.09937,2.16815.28943,2.9762-.79486-.53326-1.29913-1.22406-1.29913-1.97614,0-1.68945,2.26367-5,5-5Z" style="" stroke-width=" 0px"/></svg>