<svg xmlns="http://www.w3.org/2000/svg" version="1.1" viewBox="-5.0 -10.0 110.0 110.0">
 <path d="m36.715 72.008v8.0234l2.3242-2.6328c0.058594-0.070313 0.125-0.13672 0.19531-0.19922 0.86328-0.76562 2.1836-0.68359 2.9453 0.17969l2.3398 2.6523v-8.0234zm53.129-11.469c-0.64844 1.3242-1.1602 2.7891-1.5156 4.3555-0.35547 1.5703-0.54688 3.2539-0.54688 5.0195 0 1.7656 0.19141 3.4492 0.54688 5.0195 0.35547 1.5664 0.86719 3.0273 1.5156 4.3555 0.19531 0.32031 0.3125 0.69531 0.3125 1.0977 0 1.1562-0.9375 2.0938-2.0938 2.0938h-39.348v3.0781c0 1.1562-0.9375 2.0938-2.0938 2.0938-0.69141 0-1.3047-0.33594-1.6836-0.85156l-4.3125-4.8867-4.4336 5.0234c-0.76562 0.86328-2.082 0.94531-2.9453 0.17969-0.46484-0.41016-0.70312-0.98438-0.70312-1.5625h-0.007813v-3.0781h-13.254c-3.457 0-6.6016-1.4141-8.8789-3.6914s-3.6914-5.418-3.6914-8.8789c0-3.457 1.4141-6.6016 3.6914-8.8789s5.418-3.6914 8.8789-3.6914h68.789c1.1562 0 2.0938 0.9375 2.0938 2.0938 0 0.40234-0.11328 0.78125-0.3125 1.0977zm-6.1719 7.2773h-56.355c-1.1562 0-2.0938 0.9375-2.0938 2.0938s0.9375 2.0938 2.0938 2.0938h5.207v6.2812h-13.254c-2.3008 0-4.3945-0.94141-5.9141-2.4609s-2.4609-3.6133-2.4609-5.9141c0-2.3008 0.94141-4.3945 2.4609-5.9141 1.5195-1.5195 3.6133-2.4609 5.9141-2.4609h65.664c-0.26562 0.78906-0.49609 1.6055-0.68359 2.4414-0.28125 1.2422-0.47656 2.5273-0.57812 3.8398zm1.2656 10.473c-0.26562-0.78906-0.49609-1.6055-0.68359-2.4414-0.28125-1.2422-0.47656-2.5273-0.57812-3.8398h-34.961v6.2812h36.227zm-58.668-49.902c0.33203 0.007812 0.64062 0.09375 0.91797 0.23828l22.812 5.918 22.812-5.918c0.27344-0.14453 0.58594-0.23047 0.91797-0.23828l10.863-2.8164-34.59-8.9727-34.594 8.9727 10.863 2.8164zm2.0391 19.223v-14.379l21.133 5.4805c0.34375 0.09375 0.71484 0.10547 1.082 0.007812l21.164-5.4922v14.379l-43.375 0.003906zm62.078-19.23v7.6172c0 1.1562-0.9375 2.0938-2.0938 2.0938s-2.0938-0.9375-2.0938-2.0938v-6.5273l-10.32 2.6797v17.562c0 1.1562-0.9375 2.0938-2.0938 2.0938l-47.566-0.003907c-1.1562 0-2.0938-0.9375-2.0938-2.0938v-17.562l-17.551-4.5547c-1.1172-0.28906-1.7852-1.4297-1.4961-2.5469 0.19922-0.77344 0.80469-1.3281 1.5312-1.5078l42.871-11.121c0.36719-0.09375 0.73828-0.085937 1.082 0.007813l42.871 11.121c1.1172 0.28906 1.7852 1.4297 1.4961 2.5469-0.19922 0.77344-0.80469 1.3281-1.5312 1.5078l-3.0078 0.78125z" fill-rule="evenodd"/>
</svg>