<svg xmlns="http://www.w3.org/2000/svg" version="1.1" viewBox="-5.0 -10.0 110.0 110.0">
 <g fill-rule="evenodd">
  <path d="m35.145 28.43h-1.1836-6.3125c-0.46875 0-0.9375-0.011719-1.4023 0.003906-0.63281 0.019531-1.1172-0.29297-1.5195-0.71875-0.99219-1.0547-0.88672-2.8984 0.16797-3.8906 0.48047-0.45312 1.0781-0.60547 1.7344-0.57812 0.57031 0.023437 1.1406 0.019531 1.707 0.019531h4.5586c0.92969 0 1.8555 0.003906 2.7812 0.003906 0.042969 0 0.085938-0.011719 0.14062-0.019531 0-0.21094 0.003906-0.41016 0-0.60938-0.054687-1.875 0.40625-3.6367 1.1875-5.3203 1.3672-2.9492 3.4375-5.3086 6.0898-7.168 1.4414-1.0117 2.9922-1.8086 4.6953-2.2617 0.72266-0.19922 1.4727-0.39062 2.2109-0.39062s1.4922 0.18359 2.2109 0.38281c2.6094 0.73047 4.8398 2.1328 6.8086 3.9688 1.5625 1.4609 2.8477 3.1367 3.7891 5.0625 0.78516 1.5977 1.3008 3.2695 1.3672 5.0625 0.015625 0.41406 0.003907 0.82813 0.003907 1.2852h0.79687c1.7383-0.003907 3.4766-0.003907 5.2148-0.007813 0.94922 0 1.8984 0.015625 2.8477 0 0.37109-0.003906 0.73438-0.03125 1.1055 0.058594 0.60156 0.14062 1.0469 0.48828 1.3555 0.99609 0.55469 0.91406 0.62891 1.8828 0.14844 2.8438-0.38672 0.77734-1.0195 1.2656-1.9219 1.2656-2.6836 0.011719-5.3633 0.003906-8.0469 0.003906h-0.86328c0.015625 0.31641 0.039063 0.60156 0.039063 0.88281-0.003907 1.7891-0.39062 3.4805-1.2891 5.0352-0.35156 0.60547-0.78125 1.1523-1.3828 1.5312-0.20312 0.12891-0.42578 0.23047-0.64844 0.31641-0.12891 0.050781-0.17188 0.11328-0.16406 0.23828 0.007812 0.18359 0.003906 0.36328 0.011718 0.54688 0.019532 0.6875-0.20312 1.3242-0.39453 1.9648-0.33984 1.1445-0.88281 2.1914-1.5742 3.1641-0.050781 0.070313-0.097656 0.14453-0.13672 0.20703 0.1875 0.43359 0.36328 0.85938 0.55859 1.2773 0.039062 0.089843 0.12891 0.17969 0.21875 0.21875 2.4258 0.99609 4.8555 1.9805 7.2812 2.9766 1.6602 0.68359 3.3164 1.3789 4.9766 2.0664 0.75781 0.3125 1.5078 0.63281 2.2695 0.92969 0.80469 0.3125 1.4805 0.80078 2.0312 1.4453 0.90234 1.0508 1.4922 2.2578 1.6406 3.6406 0.074219 0.69141 0.027344 1.4023 0.027344 2.1016v12.895c0 3.9688-0.003906 7.9375 0 11.91 0 3.0938 0 6.1836 0.003906 9.2773 0 0.125 0.011719 0.24609 0.011719 0.37109-0.015625 0.60547-0.46484 1.0586-1.0625 1.0586-2.4844 0.003907-4.9727 0-7.4531 0h-7.1914c-2.4023 0-4.8086-0.003906-7.2148 0-1.8047 0.003907-3.6094 0.011719-5.4141 0.011719-4.0938-0.003906-8.1875-0.011719-12.277-0.011719-3.625-0.003906-7.25 0.003907-10.875 0.003907h-4.0117c-0.62109 0-1.0859-0.45703-1.0859-1.082 0.003906-3.1562 0.011718-6.3164 0.011718-9.4766 0.003906-3.6328 0-7.2656 0-10.898v-10.898c0-1.4258 0.015625-2.8516-0.011718-4.2773-0.035157-2.0273 0.71484-3.7148 2.1602-5.1055 0.5-0.48047 1.1133-0.78516 1.7578-1.0508 4.7656-1.9492 9.5273-3.9102 14.293-5.8633 0.14062-0.058594 0.22266-0.14062 0.27734-0.28125 0.15625-0.38672 0.33984-0.76172 0.49609-1.1445 0.023438-0.054688-0.007812-0.15234-0.042968-0.20703-0.48828-0.69531-0.91016-1.4297-1.25-2.207-0.35938-0.82031-0.59375-1.6797-0.75391-2.5586-0.058594-0.3125-0.019532-0.64063-0.011719-0.96094 0.003906-0.14453-0.027344-0.23047-0.1875-0.28906-0.92188-0.32422-1.5273-1.0117-1.9961-1.8242-1.0195-1.7617-1.4062-3.668-1.2734-5.6875 0.003906-0.058594 0.007812-0.11719 0.007812-0.17578-0.015625-0.003907-0.023438-0.019532-0.042969-0.0625zm-5.1211 42.762v-1.6367c0-1.6016-0.007813-3.1992-0.003907-4.8008 0-0.55469 0.42578-0.98438 0.97656-1.0195 0.53125-0.035156 1 0.34375 1.082 0.88281 0.015625 0.10156 0.015625 0.20312 0.015625 0.30469v25.203 0.27734h0.26953 5.2227c1.7422 0 3.4805-0.003906 5.2227 0.003906 0.21484 0 0.26953-0.0625 0.26172-0.26953-0.015624-0.46094-0.003906-0.92188-0.007812-1.3828 0-0.050781-0.011719-0.10547-0.019531-0.16016-0.23047 0.125-0.43359 0.26172-0.65234 0.35156-0.21875 0.09375-0.45312 0.16406-0.6875 0.21094-1.6016 0.3125-3.2148-0.74609-3.5664-2.3359-0.03125-0.14453-0.085938-0.21875-0.24219-0.25391-1.0078-0.23047-1.7812-0.77344-2.2812-1.6914-0.48828-0.89453-0.35938-2.1914 0.29688-2.9727 0.41797-0.49609 0.93359-0.82812 1.5391-1.043 0.070312-0.023437 0.15234-0.11328 0.16406-0.18359 0.13672-0.83984 0.51953-1.5391 1.1875-2.0586 0.92969-0.71875 1.9648-0.91406 3.0391-0.38281 0.36328 0.17969 0.64453 0.30859 1.0312 0.10547 0.15234-0.078125 0.19922-0.13672 0.19922-0.29297-0.003906-3.4141-0.003906-6.8281-0.003906-10.242 0-3.7422 0.003906-7.4883 0-11.23 0-0.0625-0.023437-0.15625-0.070312-0.18359-0.19531-0.11719-0.40234-0.21875-0.64453-0.34766 0.51172 1.2305 0.16016 2.2383-0.65234 3.1445 0.49219 0.52734 0.85938 1.1133 1.0273 1.8047 0.19141 0.79687 0.11719 1.5625-0.34766 2.2461-0.66406 0.97266-1.6328 1.3125-2.7617 1.2188-0.42969-0.035156-0.85547-0.16406-1.3008-0.25391-0.007812 0.011719-0.03125 0.046875-0.050781 0.085937-0.39062 0.78906-0.96875 1.375-1.7969 1.7148-0.97266 0.40234-2.2031 0.089844-2.8594-0.73047-0.58594-0.73438-0.78125-1.5703-0.6875-2.4844 0.015625-0.16016-0.023437-0.23047-0.17969-0.28516-0.89063-0.30859-1.5664-0.87109-1.9688-1.7305-0.30859-0.66016-0.32813-1.3477-0.039063-2.0195 0.33594-0.77734 0.94141-1.2656 1.7539-1.5 0.16406-0.046875 0.23047-0.11328 0.22656-0.30469-0.03125-0.90625 0.22266-1.7227 0.84766-2.3945 0.48438-0.52344 1.0898-0.82813 1.8164-0.84766 0.99609-0.027343 1.7734 0.40234 2.3789 1.1719 0.082032 0.10547 0.15234 0.11719 0.27734 0.070313 0.29297-0.10547 0.59375-0.19922 0.89844-0.27344 0.19141-0.050781 0.39453-0.0625 0.63672-0.09375-0.078124-0.050781-0.12109-0.078125-0.16406-0.10156-0.75-0.39844-1.5-0.79297-2.2461-1.1875-0.56641-0.30078-0.77344-0.88672-0.52344-1.4688 0.61328-1.4297 1.2305-2.8594 1.8438-4.2891 0.14062-0.33203 0.28125-0.66406 0.44531-1.043-0.12109 0.042968-0.19531 0.070312-0.26562 0.097656-4.0391 1.6602-8.082 3.3164-12.121 4.9766-0.45312 0.1875-0.91797 0.35938-1.2734 0.71094-0.91406 0.91016-1.4766 1.9766-1.4648 3.3047 0.015625 1.7852 0 3.5664 0 5.3516 0 3.332 0 6.668-0.003906 10 0 0.20703 0.058594 0.25781 0.25781 0.25391 1.4492-0.007812 2.8945-0.003906 4.3438-0.003906 0.52344 0.007812 1.0547 0.007812 1.625 0.007812zm44.891-18.836c-0.027343 0.023437-0.054687 0.046875-0.078124 0.070312 0.023437 0.12109 0.050781 0.24219 0.070312 0.36328 0.16016 0.97266-0.10547 1.7891-0.86328 2.4375-0.59375 0.50781-1.3047 0.69922-2.0625 0.75391-0.17188 0.011719-0.22266 0.070312-0.25 0.22266-0.21094 1.125-0.80859 1.9609-1.8242 2.5117-0.84766 0.46094-2.1445 0.36719-2.9102-0.22266-0.5625-0.42969-0.9375-0.97266-1.1406-1.6445-0.03125-0.10938-0.074219-0.14453-0.19141-0.14453-0.32812-0.011719-0.66016-0.015625-0.98047-0.082031-1.2266-0.26953-2.1758-0.90234-2.6484-2.1172-0.078125-0.20703-0.12109-0.42969-0.1875-0.65625-0.039062 0.015625-0.074218 0.023438-0.10547 0.039063-1.4922 0.78906-2.9805 1.5859-4.4805 2.3633-0.25391 0.13281-0.33984 0.26953-0.33984 0.5625 0.011719 6.1992 0.007813 12.398 0.007813 18.602v0.69531c0.47266 0.027344 0.92187 0.011719 1.3555 0.085937 1.2461 0.21094 2.2695 1.1172 2.3828 2.4648 0.011719 0.14844 0.0625 0.1875 0.20703 0.20703 1.4375 0.17969 2.7305 1.1758 3.0508 2.6094 0.24219 1.0781-0.050781 2.0156-0.87109 2.7578-0.55078 0.5-1.2188 0.73828-1.957 0.78125-0.10938 0.007813-0.22656-0.019531-0.25 0.16406-0.0625 0.50781-0.24219 0.96875-0.53516 1.3945-0.63672 0.93359-1.9414 1.3516-2.9922 0.9375-0.12109-0.046875-0.24219-0.089844-0.37109-0.13672v3.043h0.29688c3.4727 0 6.9453 0 10.418 0.003906 0.19531 0 0.24219-0.058594 0.24219-0.25-0.003906-5.6367-0.003906-11.273-0.003906-16.91 0-0.074219-0.007813-0.14844-0.011719-0.24219-0.066406 0.027344-0.097656 0.035157-0.13281 0.054688-0.57031 0.28906-1.1797 0.44531-1.8164 0.4375-1.3555-0.023438-2.4297-0.5625-3.0586-1.8008-0.59375-1.1602-0.43359-2.3086 0.18359-3.4141 0.0625-0.10938 0.0625-0.18359 0.003906-0.29297-0.17578-0.3125-0.36328-0.61719-0.49219-0.94922-0.26562-0.6875-0.3125-1.4023-0.0625-2.1016 0.42969-1.1914 1.5156-1.9375 2.7852-1.9844 1.0586-0.042969 2.0039 0.26172 2.8711 0.84375 0.12109 0.082031 0.21484 0.089844 0.35547 0.027344 0.69141-0.30469 1.4492 0.19141 1.4492 0.94922 0 1.8242-0.003906 3.6523-0.003906 5.4766v0.91406c0.070313 0.011718 0.10547 0.019531 0.14062 0.019531 1.9766 0 3.9492 0 5.9219 0.003906 0.16016 0 0.17188-0.078125 0.17188-0.20312-0.003906-1.6445 0-3.2891 0-4.9336 0-3.2109 0.003907-6.418 0-9.625 0-0.50391 0.03125-1.0156-0.039062-1.5078-0.13281-0.88672-0.55078-1.6562-1.1211-2.3438-0.058594-0.074219-0.089844-0.16016-0.13281-0.23438zm-29.773 5.1484v3.3672 10.477c0 3.2148 0.003906 6.4297 0.003906 9.6445 0 3.0391 0 6.0781-0.003906 9.1172 0 0.28125-0.0625 0.30469 0.30859 0.30469 1.7109-0.003906 3.4219 0 5.1328 0h4.0781c0.12891 0 0.19922-0.023437 0.19922-0.17969-0.007813-1.0312-0.003906-2.0625-0.003906-3.0898v-5.2383-5.5469c0-1.8555-0.003907-3.7109-0.003907-5.5664v-5.6328c0-1.8633 0-3.7266 0.003907-5.5898v-2.0742c-0.039063-0.011719-0.058594-0.023438-0.078125-0.023438-0.73438-0.0625-1.0898-0.44531-1.0938-1.1797v-2.3906c0-0.074219-0.007813-0.15234-0.011719-0.25-1.1602 0.66797-2.2891 1.2969-3.668 1.2969-1.3867 0.003906-2.5234-0.62891-3.6953-1.3047v0.28516c0 0.8125 0.003906 1.6211 0 2.4336-0.003906 0.50391-0.23828 0.87109-0.66797 1.0312-0.14844 0.054688-0.30859 0.070313-0.5 0.10938zm-5.9648-39.965h21.594c0-0.035156 0.003907-0.050781 0-0.0625-0.019531-0.039062-0.039062-0.078124-0.0625-0.11719-0.94922-1.75-2.1992-3.2578-3.7148-4.5391-1.8359-1.5547-3.8906-2.6914-6.2695-3.1719-0.28906-0.058594-0.59766-0.10938-0.89062-0.082032-0.83203 0.078125-1.6406 0.30469-2.418 0.60938-3.1562 1.2383-5.6211 3.3281-7.5 6.1367-0.25391 0.38672-0.47656 0.79688-0.73828 1.2266zm1.5352 16.043c-0.007813 0.074219-0.019532 0.11719-0.019532 0.16016 0 1.0312-0.003906 2.0625 0.003906 3.0938 0 0.21875 0.03125 0.4375 0.078126 0.65234 0.50391 2.3555 1.7734 4.2305 3.6836 5.6602 2.3984 1.8008 5.0781 2.3984 7.9727 1.5586 2.9062-0.84375 4.9766-2.7305 6.2383-5.4766 0.37891-0.82422 0.64453-1.6914 0.64062-2.6211-0.003906-0.82031 0-1.6367 0-2.457 0-0.57031 0-0.56641-0.56641-0.57422-0.16406-0.003906-0.24219 0.039063-0.28906 0.21094-0.24609 0.91406-0.75391 1.6641-1.5469 2.1914-2.2305 1.4844-5.1367 0.39453-5.8555-2.1836-0.03125-0.11719-0.089843-0.14844-0.19922-0.14453-0.57031 0.003906-1.1406 0.003906-1.707 0-0.11719 0-0.16406 0.039062-0.19531 0.15234-0.20312 0.76953-0.61719 1.4102-1.2188 1.9336-1.4609 1.2734-3.7891 1.1953-5.1523-0.17188-0.50781-0.51172-0.84766-1.1094-1.0469-1.7969-0.019531-0.070312-0.10547-0.16406-0.16797-0.17188-0.21094-0.027344-0.42188-0.015625-0.65234-0.015625zm9.293-13.949h-4.4961c-2.3164 0-4.6367 0.003907-6.9531-0.003906-0.18359 0-0.26563 0.058594-0.30078 0.23047s-0.089844 0.33984-0.12891 0.51172c-0.19922 0.89844-0.30078 1.8008-0.20312 2.7227 0.011719 0.11719 0.035156 0.17578 0.17969 0.17578 1.875-0.003906 3.7539 0 5.6289 0h6.5039 5.3906c2.0742 0 4.1484-0.007812 6.2227 0 0.17969 0 0.22266-0.054687 0.23438-0.21484 0.097657-1.0859-0.054687-2.1406-0.33594-3.1875-0.050782-0.18359-0.13672-0.23438-0.32031-0.23438h-11.422zm-20 70.777v-11.402c-0.078125-0.003906-0.13672-0.011718-0.19531-0.011718-1.9297 0-3.8594 0.003906-5.7891-0.003906-0.18359 0-0.23047 0.054687-0.23047 0.23437 0.003907 3.6445 0.003907 7.293 0 10.938 0 0.19141 0.050782 0.24609 0.24609 0.24609 1.6367-0.007812 3.2734-0.003906 4.9141-0.003906 0.34766 0.003906 0.69531 0.003906 1.0547 0.003906zm46.207-11.395h-6.2188c-0.007813 0.10156-0.015626 0.17969-0.015626 0.25781v4.0547c0 2.293 0.003907 4.5859 0 6.8789 0 0.17578 0.054688 0.20703 0.21094 0.20703 1.9375-0.003906 3.875-0.003906 5.8125 0 0.16016 0 0.21875-0.046874 0.21484-0.21094-0.007813-0.8125-0.003906-1.6211-0.003906-2.4336v-7.2148-1.5391zm-26.227-52.664h2.4336c6.9297 0 13.859 0 20.793-0.003906 0.15234 0 0.30469-0.023437 0.45312-0.054687 0.054688-0.011719 0.12891-0.058594 0.14844-0.10547 0.097656-0.25 0.085938-0.50391-0.050781-0.73828-0.023438-0.039063-0.089844-0.074219-0.14062-0.078125-0.21094-0.019532-0.42188-0.039063-0.63281-0.039063-7.8516-0.003906-15.703-0.003906-23.555-0.003906-6.2656 0-12.531-0.003906-18.797 0.003906-1.3906 0-2.7773 0.027344-4.1641 0.03125-0.17188 0-0.27344 0.0625-0.29297 0.21875-0.023438 0.17188-0.042969 0.34766-0.015626 0.51562 0.011719 0.078125 0.125 0.17969 0.21094 0.19922 0.17578 0.042969 0.35938 0.050781 0.54297 0.050781 7.6875 0.007813 15.375 0.007813 23.066 0.003906zm-3.6484 20.156c-0.011719 0.058594-0.019532 0.085938-0.019532 0.11328 0 1.4023-0.003906 2.8086 0.003906 4.2109 0 0.085938 0.0625 0.19141 0.12891 0.25781 0.74609 0.72266 1.6172 1.25 2.5859 1.6133 0.63672 0.24219 1.293 0.23828 1.9297 0 0.94141-0.35156 1.7852-0.86719 2.5273-1.543 0.14844-0.13672 0.19922-0.27734 0.19922-0.47656-0.007812-1.3164-0.003906-2.6328-0.003906-3.9492 0-0.070313-0.007812-0.13672-0.015625-0.23438-1.207 0.4375-2.4297 0.63281-3.6797 0.63281-1.2539 0.003907-2.4727-0.19922-3.6562-0.625zm-4.1094-2.4375c-1.1055 2.582-2.2227 5.1836-3.3438 7.7969 1.7891 0.94531 3.5547 1.8828 5.3555 2.8359v-1.4844-4.4922c0-1 0.003907-2-0.007812-3 0-0.097656-0.046875-0.23047-0.11719-0.28125-0.61719-0.46484-1.2461-0.91406-1.8867-1.375zm18.891 7.7969c-1.125-2.625-2.2383-5.2266-3.3438-7.7969-0.64453 0.46484-1.2812 0.91797-1.9062 1.3828-0.070313 0.050781-0.097657 0.1875-0.10156 0.28906-0.015625 0.3125-0.007813 0.62891-0.007813 0.94141v7.25 0.76562c1.8086-0.95312 3.5703-1.8867 5.3594-2.832zm6.6875 3.8203c-0.003907 0.066406-0.011719 0.13281-0.011719 0.19531 0 0.51172 0.27344 0.94141 0.65625 1.0352 0.39844 0.09375 0.84375-0.15625 1.0859-0.60938 0.20312-0.39062 0.22266-0.78906 0.10938-1.2109-0.14844-0.5625 0.15234-1.1133 0.69922-1.2539 0.20312-0.050781 0.4375-0.03125 0.64453 0.003906 0.51562 0.097656 1.0195 0.12109 1.5078-0.082031 0.33984-0.14062 0.47266-0.38672 0.32422-0.71875-0.13672-0.30078-0.31641-0.60156-0.54687-0.83203-0.26953-0.26953-0.60156-0.48047-0.92578-0.69141-0.32031-0.21094-0.53906-0.47266-0.55469-0.86328-0.003907-0.15625-0.074219-0.21094-0.19922-0.26172-0.88672-0.35938-1.7695-0.73047-2.6523-1.0898-0.56641-0.23047-1.1367-0.46484-1.7109-0.67188-0.51953-0.1875-0.85156 0.039062-0.83984 0.58594 0.011719 0.58984 0.20703 1.1172 0.67188 1.5117 0.39844 0.33984 0.51172 0.88672 0.25391 1.3242-0.20703 0.35156-0.52344 0.51562-0.92969 0.52344-0.43359 0.011719-0.83984 0.11328-1.1719 0.41406-0.35547 0.32031-0.38672 0.75781-0.046875 1.0977 0.14844 0.15234 0.33984 0.28125 0.53516 0.36719 0.50781 0.23047 1.0312 0.22266 1.5586 0.039062 0.78516-0.26953 1.668 0.26953 1.543 1.1875zm-8.5117-24.18v-3.0586h-18.586v3.0625h0.55859c0.09375 0 0.19141 0.011719 0.28516-0.007813 0.050781-0.011718 0.10547-0.0625 0.13281-0.10938 0.12109-0.21484 0.21875-0.44922 0.35547-0.65234 0.83984-1.2461 2.0195-1.8516 3.5117-1.7344 1.5469 0.12109 2.6328 0.95703 3.25 2.3789 0.0625 0.14453 0.13281 0.19922 0.28906 0.19531 0.60547-0.007812 1.2148-0.007812 1.8203 0 0.16797 0.003907 0.23828-0.0625 0.30078-0.21484 0.81641-2.0898 3.3945-3.0117 5.3555-1.9258 0.79688 0.44141 1.3672 1.082 1.7344 1.9102 0.027344 0.0625 0.09375 0.14844 0.14844 0.15234 0.27344 0.011719 0.54688 0.003906 0.84375 0.003906zm-22.699 30.992c0.007812-0.10156 0.007812-0.20312 0.019531-0.30469 0.054688-0.42969 0.36719-0.77344 0.78516-0.875 0.39844-0.097656 0.83984 0.070313 1.0859 0.41016 0.37109 0.51172 1.168 0.80078 1.7695 0.63281 0.35156-0.097656 0.51953-0.34375 0.48438-0.70312-0.0625-0.61328-0.64062-1.293-1.2383-1.457-0.42969-0.11719-0.73047-0.47656-0.76562-0.91406-0.035156-0.42969 0.1875-0.82812 0.58203-1.0195 0.10938-0.054687 0.23047-0.09375 0.34375-0.14844 0.32422-0.15625 0.60156-0.36328 0.77344-0.6875 0.17188-0.31641 0.089844-0.52734-0.24219-0.65625-0.58203-0.23047-1.5117 0.007812-1.9102 0.49219-0.22656 0.27734-0.51562 0.42578-0.87891 0.41406-0.46875-0.019532-0.83984-0.32812-0.96484-0.8125-0.089844-0.34766-0.21094-0.67188-0.5-0.90234-0.35938-0.28516-0.75391-0.21484-0.98047 0.1875-0.16016 0.28125-0.21484 0.59375-0.15625 0.91016 0.050781 0.26953 0.14453 0.53516 0.22266 0.80078 0.19922 0.66406-0.21875 1.3008-0.91016 1.3594-0.15625 0.015626-0.32031-0.046874-0.48047-0.03125-0.23437 0.019532-0.48437 0.035157-0.69922 0.12109-0.33984 0.13281-0.41016 0.43359-0.19922 0.73047 0.078125 0.11328 0.17188 0.23438 0.28906 0.29297 0.26562 0.12891 0.54687 0.23047 0.82812 0.31641 0.25781 0.078125 0.53516 0.097656 0.78516 0.1875 0.57812 0.21094 0.83203 0.83984 0.58594 1.4023-0.050781 0.12109-0.10938 0.23828-0.15234 0.36328-0.12109 0.37891-0.14844 0.76172 0.003907 1.1367 0.14453 0.35547 0.42578 0.46094 0.75781 0.26953 0.11719-0.066406 0.23047-0.16016 0.32031-0.26172 0.32031-0.35938 0.44531-0.78516 0.44141-1.2539zm-12.805 14.402h6.2227v-3.6211c-0.089844-0.003906-0.16797-0.011719-0.24609-0.011719-1.9219 0-3.8438 0-5.7656-0.003906-0.18359 0-0.21484 0.078125-0.21094 0.23438 0.007813 0.65625 0.003907 1.3164 0.003907 1.9727-0.003907 0.47656-0.003907 0.94922-0.003907 1.4297zm46.195 0.007812h6.2227v-0.20703c0-1.0547 0-2.1055 0.003907-3.1562 0-0.28125 0.003906-0.27734-0.27344-0.27734h-4.582-1.3672c-0.003906 1.2227-0.003906 2.418-0.003906 3.6406zm-26.926 3.75c-0.0625 0.074219-0.097656 0.10938-0.12891 0.14453-0.27734 0.32422-0.62891 0.45312-1.0391 0.35937-0.40625-0.09375-0.65625-0.35937-0.77734-0.75781-0.09375-0.3125-0.28516-0.42578-0.61328-0.35156-0.61719 0.14062-0.96484 0.83984-0.75 1.3555 0.3125 0.76172-0.29688 1.4922-1.125 1.4102-0.19531-0.019531-0.41016 0.007813-0.60156 0.066407-0.32031 0.097656-0.57813 0.29297-0.62109 0.66016-0.042969 0.36328 0.16016 0.61328 0.44141 0.80078 0.34375 0.22656 0.72266 0.27344 1.1328 0.21875 0.82422-0.10938 1.3789 0.51562 1.207 1.3281-0.027344 0.13281-0.050782 0.27734-0.03125 0.41016 0.0625 0.44141 0.4375 0.77734 0.89453 0.83594 0.42578 0.054687 0.78516-0.15625 0.97656-0.58203 0.13672-0.30469 0.34766-0.52344 0.67187-0.61328 0.11719-0.03125 0.23828-0.046874 0.36719-0.070312-0.003906-1.7266-0.003906-3.4453-0.003906-5.2148zm24.84-10.094c-0.011719 0.039063 0 0.019532 0-0.003906 0-1.3281 0.003906-2.6602 0-3.9883 0-0.0625-0.019532-0.13281-0.054688-0.18359-0.32031-0.49609-0.73828-0.88281-1.2852-1.125-0.46484-0.20703-0.94531-0.30469-1.4492-0.18359-0.41406 0.10156-0.67578 0.39453-0.66797 0.78516 0.011719 0.51953 0.21094 0.98437 0.63281 1.2695 0.58203 0.39062 0.73828 1.2383 0.11328 1.7773-0.30078 0.25781-0.47266 0.60938-0.5625 0.99609-0.15625 0.68359 0.23438 1.3164 0.91016 1.4688 0.60547 0.13672 1.1367-0.035156 1.6367-0.37891 0.22266-0.14453 0.46094-0.27344 0.72656-0.43359zm-10.965 10.703c0 0.84766 0.011718 1.6953-0.003906 2.543-0.011719 0.58984 0.23828 1.0586 0.64062 1.457 0.12891 0.12891 0.3125 0.21875 0.48828 0.27734 0.21875 0.074219 0.42969 0.019531 0.55859-0.1875 0.22656-0.36328 0.28516-0.75781 0.10547-1.1484-0.23438-0.50781-0.20312-0.94922 0.12891-1.2969 0.33203-0.34375 0.79688-0.40234 1.293-0.16406 0.28906 0.14062 0.58984 0.20703 0.91406 0.17969 0.74219-0.0625 1.0977-0.69922 0.72266-1.3086-0.41797-0.6875-1.3984-0.92188-2.0781-0.49609-0.46094 0.28906-1.0156 0.23047-1.3633-0.14453-0.35156-0.37891-0.37109-0.92188-0.058594-1.3711 0.09375-0.13281 0.1875-0.26172 0.25-0.41016 0.18359-0.42578 0.03125-0.80078-0.41406-0.91016-0.3125-0.074218-0.64453-0.046874-0.97266-0.058593-0.17578-0.007813-0.21484 0.089843-0.21094 0.25v2.7891zm-18.371-47.469c0.015625-0.007812 0.027344-0.015625 0.039062-0.019531v-5.3477c-0.41797 0-0.81641-0.003906-1.2148 0.007812-0.042969 0-0.11328 0.10547-0.11328 0.16406-0.023438 0.42969-0.066407 0.85938-0.039063 1.2891 0.070313 1.2344 0.38281 2.4062 1.0234 3.4727 0.089844 0.14844 0.20313 0.28516 0.30469 0.43359zm22.836-5.3711v5.3555c0.14062-0.12891 0.24609-0.26562 0.33984-0.41406 0.33203-0.53906 0.56641-1.1172 0.73438-1.7266 0.26953-0.99609 0.40234-2.0039 0.25391-3.0352-0.007812-0.0625-0.082031-0.17188-0.12891-0.17188-0.39453-0.015625-0.78516-0.007812-1.1992-0.007812zm-0.33203 18.051c0.69141 1.6172 1.3555 3.168 2.0273 4.7344 0.19922-0.11719 0.37109-0.22266 0.5625-0.33594-0.44141-1.1016-0.54688-2.1953 0.10938-3.2852-0.89062-0.36719-1.7617-0.72656-2.6992-1.1133z"/>
  <path d="m50.273 43.684c-1.875 0.046875-3.5039-0.60156-4.9492-1.75-0.46484-0.36719-0.53516-1.0156-0.17578-1.4648 0.36328-0.44922 1.0039-0.52734 1.4688-0.15234 0.67187 0.54297 1.418 0.92969 2.2461 1.1484 1.2305 0.32422 2.3906 0.10547 3.4922-0.48047 0.34766-0.18359 0.67188-0.41016 0.98828-0.64844 0.50391-0.37891 1.1367-0.33203 1.5078 0.12891 0.37109 0.46094 0.28516 1.1016-0.21094 1.4922-1.2148 0.96484-2.5781 1.5625-4.1289 1.7109-0.078125 0.011719-0.15625 0.011719-0.23828 0.015625z"/>
  <path d="m49.477 38.324c0.30469 0.16797 0.59375 0.19531 0.89844 0.14453 0.73438-0.11719 1.3242 0.42188 1.2539 1.1367-0.039062 0.39844-0.33203 0.76562-0.73047 0.87109-1.2109 0.32422-2.7305-0.17187-3.4219-1.2852-0.32422-0.51953-0.33594-0.97266-0.035156-1.4922 0.33984-0.58594 0.64453-1.1953 0.96484-1.793 0.30469-0.56641 0.89844-0.77344 1.4258-0.50391 0.53516 0.27734 0.71484 0.89453 0.41797 1.4688-0.25 0.48047-0.50781 0.95703-0.77344 1.4531z"/>
  <path d="m68.531 51.035c0.50391 0.003906 0.91406 0.42188 0.91016 0.92969-0.003906 0.50391-0.42578 0.91797-0.92969 0.91016-0.50781-0.007812-0.91406-0.42578-0.91016-0.92969 0.003907-0.50391 0.42188-0.91406 0.92969-0.91016z"/>
  <path d="m37.781 59.742c0 1.2227-1.8359 1.2227-1.8359 0 0-1.2266 1.8359-1.2266 1.8359 0"/>
  <path d="m42.777 83.258c0 1.2227-1.8359 1.2227-1.8359 0 0-1.2227 1.8359-1.2227 1.8359 0"/>
 </g>
</svg>