<?xml version="1.0" encoding="utf-8"?>
<!-- Svg Vector Icons : http://www.onlinewebfonts.com/icon -->
<!DOCTYPE svg PUBLIC "-//W3C//DTD SVG 1.1//EN" "http://www.w3.org/Graphics/SVG/1.1/DTD/svg11.dtd">
<svg version="1.1" xmlns="http://www.w3.org/2000/svg" xmlns:xlink="http://www.w3.org/1999/xlink" x="0px" y="0px" viewBox="0 0 256 256" enable-background="new 0 0 256 256" xml:space="preserve">
<metadata> Svg Vector Icons : http://www.onlinewebfonts.com/icon </metadata>
<g><g><g><path fill="" d="M117.9,10.2c-9.4,0.9-21.4,3.6-30,6.8c-11.1,4.1-23.8,11.4-33.5,19.2c-5.2,4.2-14.5,13.6-18.6,18.6c-28.6,36-33.9,84-13.7,124.6c8.9,18,22.7,34,39.1,45.4c15,10.4,31.5,17.1,50,20c8.4,1.4,24.2,1.5,32.3,0.2c10.8-1.6,19.2-3.9,28.1-7.5c35.6-14.6,62.2-45.3,71.4-82.6c2.4-9.9,3-15.3,3-27c0-7.6-0.2-12-0.8-15.9c-3.9-25.6-15.7-49.1-34-67.4c-18.7-18.7-42.4-30.4-68.9-34.1C137.2,10,123.2,9.7,117.9,10.2z M145.3,24.4c22.3,3.9,41,13.2,56.3,28.2c18.8,18.5,29.5,42.2,31.1,68.8c1.5,27.1-6.5,52.8-23,73.2c-1.7,2.1-5.4,6.1-8.3,8.9c-15.3,14.9-34.2,24.3-56,28c-6.1,1.1-21.9,1.4-28.6,0.7C93,229.7,71.8,220,55.1,203.9c-8.8-8.5-15.6-17.7-21-28.9c-7.2-14.7-10.8-30.2-10.8-47c0-36.3,17.3-68.6,47.4-88.3c11.8-7.7,28-13.6,43.5-15.7C120.6,23.1,139.2,23.4,145.3,24.4z"/><path fill="#000000" d="M124.9,56c-3.1,1.9-2.9-0.3-2.9,42c0,28,0.1,38.7,0.6,39.5c0.4,1,40.3,35,43.8,37.3c2.8,1.9,7.6,0.6,9.2-2.4c0.9-1.8,0.9-5,0-6.5c-0.4-0.7-9.6-8.7-20.6-17.9L135,131.5V95.6c0-39.6,0.1-37.7-2.9-39.6c-0.9-0.6-2.3-0.9-3.6-0.9S125.8,55.5,124.9,56z"/></g></g></g>
</svg>