<?xml version="1.0" encoding="utf-8"?>
<!-- Svg Vector Icons : http://www.onlinewebfonts.com/icon -->
<!DOCTYPE svg PUBLIC "-//W3C//DTD SVG 1.1//EN" "http://www.w3.org/Graphics/SVG/1.1/DTD/svg11.dtd">
<svg version="1.1" xmlns="http://www.w3.org/2000/svg" xmlns:xlink="http://www.w3.org/1999/xlink" x="0px" y="0px" viewBox="0 0 256 256" enable-background="new 0 0 256 256" xml:space="preserve">
<metadata> Svg Vector Icons : http://www.onlinewebfonts.com/icon </metadata>
<g><g><g><path fill="" d="M37.7,10.7c-11.2,2.2-20.8,10.2-25.2,21.1c-2.5,6.1-2.5,5.4-2.5,62c0,57,0,55.8,2.6,62.2c4,9.5,13,17.4,23.1,20.2c3.2,0.8,5.2,1,16.8,1.2l13.2,0.2l-13.1,26.2c-7.5,15.1-13.1,26.8-13.1,27.5c0,3.4,3.5,5.9,6.5,4.6c0.8-0.4,18.8-13.7,40-29.6c37.4-28,38.5-28.9,40.5-28.9c5.5,0,8.4-5,4.8-8.5c-1.4-1.4-3.3-1.8-7.2-1.6l-2.9,0.2l-31.2,23.4c-17.2,12.9-31.4,23.4-31.5,23.4c-0.1,0,4.3-9.1,9.9-20.3c7.4-14.8,10.1-20.7,10.1-21.9c0-1.1-0.4-2-1.3-3.1l-1.3-1.5l-18.6-0.2c-18.3-0.2-18.6-0.3-21.3-1.3c-7.5-3-12.8-8.6-15.1-16l-1-3.2v-53c0-50.2,0-53.2,0.8-55.8c2.6-8.5,8.7-14.5,17.2-17.2c2.6-0.8,6.5-0.8,85.3-0.8h82.5l3.2,1c7.7,2.4,13.5,8.2,16.1,16l1.2,3.5v48.9c0,41.2,0.1,49.2,0.6,50.5c0.7,1.7,2.7,3,4.5,3c1.8,0,4-1.7,4.5-3.6c0.4-1.2,0.5-15.8,0.4-50.9c-0.1-49-0.1-49.1-1.2-52.7c-3.6-12.7-13.9-22.3-26.5-24.9c-3.2-0.6-12.3-0.7-85.8-0.7C57.5,10.1,40.1,10.2,37.7,10.7z"/><path fill="" d="M70.4,79.3c-6.7,1.8-11,7.4-11,14.2c0,4,1.1,6.8,3.6,9.6c8.4,9.4,23.2,5.1,25.5-7.2c1.4-7.4-3.4-14.6-11-16.6C74.4,78.6,73.2,78.6,70.4,79.3z M77.4,90.2c3.1,3.1,0.7,8.3-3.7,8.3c-2.1,0-4.6-2.6-4.6-4.7c0-3,2-4.9,5.2-5C75.6,88.8,76.3,89.2,77.4,90.2z"/><path fill="" d="M119.4,79.4c-5.5,1.5-9.1,5.2-10.6,10.9c-1.3,5,0.3,10.2,4.2,14c3,2.9,6.4,4.1,10.8,3.9c4-0.2,6.6-1.4,9.4-4c4.1-3.9,5.6-10.4,3.5-15.8C134.3,81.5,126.3,77.4,119.4,79.4z M125.7,89.5c2.5,1.3,3,5.2,0.9,7.5c-2.1,2.2-6.2,1.8-7.5-0.8C116.6,91.5,121,87.1,125.7,89.5z"/><path fill="" d="M169.1,79.2c-4.1,0.9-8.4,4.4-10.3,8.5c-1.6,3.5-1.5,8.8,0.2,12.3c1.4,2.9,3.8,5.3,6.9,6.9c1.7,0.9,2.7,1.1,6.4,1.1s4.7-0.2,6.4-1.1c3-1.6,5.5-4.1,6.9-6.9c1.8-3.5,1.8-8.8,0.2-12.4c-1.2-2.8-4.7-6.3-7.6-7.5C175.8,79,171.8,78.6,169.1,79.2z M175.2,89.8c1.8,1.4,2.4,3.7,1.5,5.7c-0.7,1.7-2.7,3.1-4.4,3.1c-2.9,0-5.3-3.1-4.8-6C168.2,89.3,172.6,87.7,175.2,89.8z"/><path fill="" d="M185.7,138.2c-8,0.9-17.2,4.4-24.1,9c-16,10.7-25.5,30.7-23.5,49.5c1.4,13.5,6.1,23.4,15.5,32.9c6.7,6.8,12.8,10.7,20.7,13.4c19.8,6.6,41.2,1.7,55.8-13c14.7-14.6,19.6-36,13-55.8c-2.7-7.9-6.6-14-13.4-20.7c-9.3-9.2-19.3-14-32.2-15.4C192.6,137.7,190.7,137.7,185.7,138.2z M201.1,148.7c24.5,5.1,39.9,30.1,33.7,54.6c-1.9,7.4-5.6,13.6-11.8,19.7c-5,5-8.3,7.3-14.2,9.8c-19.2,8.3-42.3,1.1-54-16.8c-7.1-10.8-9-24.9-5.1-37.2c4.9-15.4,17.8-27,33.6-30.2C187.9,147.6,196.2,147.7,201.1,148.7z"/><path fill="" d="M185.2,158.3c-8.9,1.9-16.1,8.4-17.5,15.9c-0.8,4.1,1.2,6.9,4.7,6.9c2.1,0,4.2-1.8,4.7-4c0.8-4.1,3.4-6.7,7.9-8.4c8.9-3.3,20.3,0.7,21.6,7.6c0.5,2.3-1.1,5.3-3.4,6.8c-2.1,1.4-7.6,3.3-10.8,3.8c-1.7,0.2-2.7,0.7-3.8,1.8l-1.5,1.5v6.3c0,7.2,0.5,8.7,3.1,9.8c1.2,0.6,1.9,0.6,3.1,0.2c2.6-0.9,3.2-1.9,3.5-6.3l0.2-4l4.1-1.4c7.4-2.6,11.3-5.5,13.6-10.2c2.7-5.4,2.2-11.4-1.3-16.7C208.2,159.9,196.2,155.9,185.2,158.3z"/><path fill="" d="M190,217c-1.5,0.6-3,2.7-3,4.2c0,1.8,1.1,3.8,2.5,4.4c3.6,1.7,7.1-0.4,7.1-4.1C196.7,217.8,193.5,215.6,190,217z"/></g></g></g>
</svg>