<svg xmlns="http://www.w3.org/2000/svg" xmlns:xlink="http://www.w3.org/1999/xlink" version="1.1" x="0px" y="0px" viewBox="0 0 70 70" enable-background="new 0 0 70 70" xml:space="preserve"><path d="M15.1665039,28.4824219c0.3364258,0,0.671875-0.0615234,0.9902344-0.1865234l14.1845703-4.8710938  c0.7973633-0.3125,1.4023438-0.9599609,1.6601562-1.7773438c0.2578125-0.8164062,0.1337891-1.6943359-0.3486328-2.421875  l-1.8701172-2.7207031c-0.7114258-1.0712891-2.059082-1.5263672-3.2734375-1.1064453l-11.824707,4.0947266  c-1.0214844,0.3535156-1.7402344,1.2402344-1.8759766,2.3134766l-0.440918,3.4951172  c-0.1254883,0.9970703,0.2729492,1.9619141,1.0664062,2.5791016C13.9458008,28.2792969,14.5571289,28.4824219,15.1665039,28.4824219  z M14.7929688,22.0566406c0.0395508-0.3125,0.2485352-0.5703125,0.5458984-0.6728516l11.8242188-4.0947266  c0.0878906-0.0302734,0.1782227-0.0449219,0.2670898-0.0449219c0.2705078,0,0.5327148,0.1347656,0.6953125,0.3798828  l1.8696289,2.7207031c0.1889648,0.2841797,0.1430664,0.5615234,0.0991211,0.7011719  c-0.0444336,0.1396484-0.1655273,0.3925781-0.4428711,0.5019531l-14.1845703,4.8710938  c-0.3911133,0.1552734-0.6928711-0.03125-0.8041992-0.1162109c-0.1108398-0.0869141-0.3632812-0.3330078-0.3105469-0.7509766  L14.7929688,22.0566406z"/><path d="M46.6868896,45.7850952c-0.9013062-0.3830566-1.8914795-0.4336548-2.8099365-0.118103  c-0.9770508,0.3349609-1.765625,1.03125-2.2211914,1.9599609c-0.4570312,0.9316406-0.5234375,1.984375-0.1865234,2.9658203  l5.0795898,14.7890625c0.3310547,0.9667969,1.0473633,1.7773438,1.9633789,2.2246094  c0.5317383,0.2597656,1.1176758,0.3916016,1.7050781,0.3916016c0.425293,0,0.8505859-0.0693359,1.2558594-0.2080078  c0.9360962-0.321167,1.6902466-0.9820557,2.1464233-1.8163452c0.4837036,0.2106934,1.006897,0.3329468,1.5454712,0.3329468  c0.4165039,0,0.840332-0.0683594,1.2558594-0.2109375c0.9563599-0.3284912,1.6916504-1.0021973,2.1383667-1.8287964  c0.4938965,0.2155762,1.0142212,0.3395386,1.5408325,0.3395386c0.4243164,0,0.8500977-0.0703125,1.2631836-0.2128906  c2.0209961-0.6943359,3.1005859-2.9042969,2.4067383-4.9257812l-5.0795898-14.7890625  c-0.3359375-0.9794922-1.0332031-1.7685547-1.9750977-2.2304688c-0.940918-0.4443359-1.9882812-0.5068359-2.9506836-0.1767578  c-0.9376221,0.3219604-1.6901855,0.9841919-2.1421509,1.8192749c-0.6347046-0.2767334-1.3152466-0.3834229-1.9905396-0.3034668  l-2.3765259-6.9205322l4.3383179-1.4898071c1.9038086-0.6542969,3.3681641-2.1220703,4.0175781-4.0273438  s0.3867188-3.9619141-0.7207031-5.6416016l-9.5576172-14.5019531c-2.0971069-3.1832275-5.7437134-4.8518677-9.407959-4.4951782  l-0.708252-2.0614624c-0.340332-0.9912109-1.0458984-1.7900391-1.9868164-2.25  c-0.9414062-0.4609375-2.0043945-0.5263672-2.9956055-0.1855469c-2.0454102,0.7021484-3.1376953,2.9375-2.4355469,4.9824219  L28.421875,9.010376l-15.6098633,5.4163818c-4.2612305,1.4785156-7.0463867,5.6552734-6.7739258,10.1572266l0.8966675,14.8209839  c-0.0770264,0.2086182-0.098938,0.4395752-0.0211792,0.6663208c0.0165405,0.0480347,0.0465698,0.0862427,0.0693359,0.1299438  l0.1088867,1.7997437c0.1230469,2.0332031,1.1645508,3.8486328,2.8574219,4.9814453  c1.0830078,0.7246094,2.3232422,1.0966797,3.5805664,1.0966797c0.7070312,0,1.4199219-0.1181641,2.112793-0.3564453  l29.7210083-10.2062378l2.4108887,7.0206909C47.3291016,44.867981,46.9578857,45.2868652,46.6868896,45.7850952z   M29.6904297,6.5458984c-0.3442383-1.0009766,0.1914062-2.0966797,1.1938477-2.4414062  c0.4858398-0.1660156,1.0068359-0.1337891,1.4672852,0.0908203c0.4614258,0.2255859,0.8071289,0.6171875,0.9736328,1.1035156  l0.6220703,1.8112183c-0.121521,0.0371704-0.2438354,0.067688-0.3647461,0.1096802l-3.270874,1.1349487L29.6904297,6.5458984z   M13.4672852,16.3154297l20.7709961-7.2070312c0.875-0.3037109,1.7729492-0.4492188,2.6601562-0.4492188  c2.6665039,0,5.2319336,1.3203125,6.7646484,3.6464844l7.5703735,11.4874268L8.8737793,38.3408813L8.0341797,24.4628906  C7.815918,20.8515625,10.0498047,17.5019531,13.4672852,16.3154297z M14.9926758,45.8320312  c-1.3291016,0.4560547-2.7631836,0.2705078-3.9316406-0.5117188c-1.1689453-0.7822266-1.8881836-2.0361328-1.9731445-3.4404297  L8.9990845,40.411499l43.3701782-14.8948364l0.8514404,1.2919312c0.7646484,1.1601562,0.9462891,2.5800781,0.4975586,3.8955078  c-0.4482422,1.3164062-1.4599609,2.3300781-2.7744141,2.7822266L14.9926758,45.8320312z M50.8242188,65.8984375  c-0.4677734,0.1611328-0.9897461,0.1289062-1.434082-0.0888672c-0.4433594-0.2167969-0.7890625-0.6083984-0.949707-1.0771484  l-5.0795898-14.7900391c-0.1630859-0.4736328-0.1308594-0.9833984,0.090332-1.4345703  c0.2207031-0.4501953,0.6020508-0.7871094,1.074707-0.9492188c0.4765625-0.1611328,0.9921875-0.1298828,1.4438477,0.0830078  c0.0910034,0.0448608,0.1748657,0.0974121,0.2531738,0.1524048c0.0157471,0.3699341,0.0665894,0.7396851,0.1901855,1.0995483  l5.0810547,14.7949219c0.1228638,0.3574219,0.2993774,0.6800537,0.5076294,0.9740601  C51.833374,65.2334595,51.4151611,65.6954956,50.8242188,65.8984375z M54.4145508,44.1621094  c0.465332-0.1591797,0.9785156-0.1269531,1.4331055,0.0888672c0.4506836,0.2207031,0.7885742,0.6025391,0.9511719,1.0771484  l5.0795898,14.7890625c0.3359375,0.9794922-0.1870117,2.0488281-1.1650391,2.3847656  c-0.4750977,0.1640625-0.9829102,0.1308594-1.4580078-0.0996094c-0.0916138-0.0418091-0.1600952-0.1199951-0.2399902-0.1807251  c-0.0184937-0.3510742-0.0675659-0.7039795-0.1872559-1.0526733l-5.0810547-14.7949219  c-0.1196899-0.3483887-0.2993774-0.661499-0.5046997-0.9552612C53.4029541,44.843811,53.8269043,44.3647461,54.4145508,44.1621094z   M50.9042969,45.9472656c0.4506836,0.2197266,0.7880859,0.6025391,0.9511719,1.0771484l5.0810547,14.7949219  c0.3364258,0.9785156-0.1870117,2.0488281-1.1655273,2.3847656c-0.9770508,0.3378906-2.0483398-0.1855469-2.3852539-1.1660156  l-5.0810547-14.7949219c-0.1630859-0.4736328-0.1313477-0.9833984,0.0888672-1.4335938s0.6025391-0.7880859,1.0771484-0.9511719  c0.199707-0.0683594,0.40625-0.1025391,0.6118164-0.1025391C50.3637695,45.7558594,50.644043,45.8203125,50.9042969,45.9472656z"/></svg>