<svg xmlns="http://www.w3.org/2000/svg" xmlns:xlink="http://www.w3.org/1999/xlink" version="1.0" x="0px" y="0px" viewBox="0 0 74 74" style="enable-background:new 0 0 74 74;" xml:space="preserve"><g><path d="M60.27,7.4H13.74c-1.93,0-3.5,1.56-3.5,3.48v50.89c0,1.93,1.57,3.5,3.5,3.5h1.61v2.4c0,1.01,0.82,1.83,1.83,1.83h3.94   c0.47,0,0.92-0.18,1.26-0.51l3.9-3.72h21.43l3.9,3.72c0.34,0.33,0.79,0.51,1.26,0.51h3.94c1.01,0,1.83-0.82,1.83-1.83v-2.4h1.62   c1.92,0,3.48-1.57,3.48-3.5V10.88C63.75,8.96,62.19,7.4,60.27,7.4z M13.74,8.4h46.53c1.37,0,2.48,1.11,2.48,2.48v10.03H11.25V10.88   C11.25,9.51,12.37,8.4,13.74,8.4z M21.7,68.27c-0.15,0.15-0.36,0.23-0.57,0.23h-3.94c-0.46,0-0.83-0.37-0.83-0.83v-2.4h8.49   L21.7,68.27z M57.65,67.67c0,0.46-0.37,0.83-0.83,0.83h-3.94c-0.21,0-0.42-0.08-0.57-0.23l-3.14-3h8.49V67.67z M62.75,61.77   c0,1.38-1.11,2.5-2.48,2.5H13.74c-1.38,0-2.5-1.12-2.5-2.5V21.91h51.51V61.77z"/><path d="M17.69,59.37h38.63c1.06,0,1.92-0.85,1.92-1.9V28.11c0-1.05-0.86-1.9-1.92-1.9H17.69c-1.06,0-1.92,0.85-1.92,1.9v29.37   C15.76,58.52,16.63,59.37,17.69,59.37z M56.32,58.37H17.69c-0.51,0-0.92-0.4-0.92-0.9V34.08c0.07,0.04,0.15,0.07,0.25,0.07h39.99   c0.09,0,0.17-0.03,0.25-0.07v23.39C57.24,57.97,56.83,58.37,56.32,58.37z M17.69,27.21h38.63c0.51,0,0.92,0.4,0.92,0.9v5.13   c-0.07-0.04-0.15-0.07-0.25-0.07H17.01c-0.09,0-0.17,0.03-0.25,0.07v-5.13C16.76,27.61,17.18,27.21,17.69,27.21z"/><path d="M32.25,17.3h9.51c0.69,0,1.25-0.56,1.25-1.25v-4.61c0-0.69-0.56-1.25-1.25-1.25h-9.51c-0.69,0-1.25,0.56-1.25,1.25v4.61   C31,16.74,31.56,17.3,32.25,17.3z M32,11.45c0-0.14,0.11-0.25,0.25-0.25h9.51c0.14,0,0.25,0.11,0.25,0.25v4.61   c0,0.14-0.11,0.25-0.25,0.25h-9.51c-0.14,0-0.25-0.11-0.25-0.25V11.45z"/><path d="M17.17,17.7c1.67,0,3.04-1.36,3.04-3.04c0-1.68-1.36-3.05-3.04-3.05c-1.68,0-3.05,1.37-3.05,3.05   C14.12,16.33,15.49,17.7,17.17,17.7z M16.66,12.68v1.72c0,0.28,0.22,0.5,0.5,0.5s0.5-0.22,0.5-0.5v-1.72   c0.88,0.22,1.54,1.02,1.54,1.98c0,1.12-0.91,2.04-2.04,2.04c-1.13,0-2.05-0.91-2.05-2.04C15.12,13.7,15.78,12.91,16.66,12.68z"/><path d="M25.92,17.7c1.67,0,3.04-1.36,3.04-3.04c0-1.68-1.36-3.05-3.04-3.05c-1.68,0-3.05,1.37-3.05,3.05   C22.87,16.33,24.24,17.7,25.92,17.7z M25.42,12.68v1.72c0,0.28,0.22,0.5,0.5,0.5s0.5-0.22,0.5-0.5v-1.72   c0.88,0.22,1.54,1.02,1.54,1.98c0,1.12-0.91,2.04-2.04,2.04c-1.13,0-2.05-0.91-2.05-2.04C23.87,13.7,24.53,12.91,25.42,12.68z"/><path d="M48.09,17.7c1.67,0,3.04-1.36,3.04-3.04c0-1.68-1.36-3.05-3.04-3.05c-1.68,0-3.05,1.37-3.05,3.05   C45.04,16.33,46.41,17.7,48.09,17.7z M47.58,12.68v1.72c0,0.28,0.22,0.5,0.5,0.5s0.5-0.22,0.5-0.5v-1.72   c0.88,0.22,1.54,1.02,1.54,1.98c0,1.12-0.91,2.04-2.04,2.04c-1.13,0-2.05-0.91-2.05-2.04C46.04,13.7,46.7,12.91,47.58,12.68z"/><path d="M56.84,17.7c1.67,0,3.04-1.36,3.04-3.04c0-1.68-1.36-3.05-3.04-3.05c-1.68,0-3.05,1.37-3.05,3.05   C53.79,16.33,55.16,17.7,56.84,17.7z M56.34,12.68v1.72c0,0.28,0.22,0.5,0.5,0.5s0.5-0.22,0.5-0.5v-1.72   c0.88,0.22,1.54,1.02,1.54,1.98c0,1.12-0.91,2.04-2.04,2.04c-1.13,0-2.05-0.91-2.05-2.04C54.79,13.7,55.45,12.91,56.34,12.68z"/><path d="M16.28,5.5h13.41c0.28,0,0.5-0.22,0.5-0.5s-0.22-0.5-0.5-0.5H16.28c-0.28,0-0.5,0.22-0.5,0.5S16,5.5,16.28,5.5z"/><path d="M44.31,5.5h13.41c0.28,0,0.5-0.22,0.5-0.5S58,4.5,57.72,4.5H44.31c-0.28,0-0.5,0.22-0.5,0.5S44.03,5.5,44.31,5.5z"/></g></svg>