<svg xmlns="http://www.w3.org/2000/svg" data-name="Layer 2" viewBox="0 0 128 128" x="0px" y="0px"><path d="M109.81,9H18.19c-4.91,0-8.9,3.86-8.9,8.59V110.08c0,4.92,4,8.92,8.92,8.92H109.79c4.92,0,8.92-4,8.92-8.92V17.59c0-4.74-3.99-8.59-8.9-8.59ZM18.21,116c-3.26,0-5.92-2.65-5.92-5.92V37.52H115.71V110.08c0,3.26-2.66,5.92-5.92,5.92H18.21ZM12.29,17.92v-.32c0-3.08,2.65-5.59,5.9-5.59H109.81c3.25,0,5.9,2.51,5.9,5.59v16.92H12.29V17.92Z"/><path d="M26.81,17.34c-3.26,0-5.92,2.67-5.92,5.94s2.65,5.94,5.92,5.94,5.92-2.67,5.92-5.94-2.65-5.94-5.92-5.94Zm0,8.88c-1.61,0-2.92-1.32-2.92-2.94s1.31-2.94,2.92-2.94,2.92,1.32,2.92,2.94-1.31,2.94-2.92,2.94Z"/><path d="M45.25,17.34c-3.26,0-5.92,2.67-5.92,5.94s2.65,5.94,5.92,5.94,5.92-2.67,5.92-5.94-2.65-5.94-5.92-5.94Zm0,8.88c-1.61,0-2.92-1.32-2.92-2.94s1.31-2.94,2.92-2.94,2.92,1.32,2.92,2.94-1.31,2.94-2.92,2.94Z"/><path d="M63.7,17.34c-3.26,0-5.92,2.67-5.92,5.94s2.65,5.94,5.92,5.94,5.92-2.67,5.92-5.94-2.65-5.94-5.92-5.94Zm0,8.88c-1.61,0-2.92-1.32-2.92-2.94s1.31-2.94,2.92-2.94,2.92,1.32,2.92,2.94-1.31,2.94-2.92,2.94Z"/><path d="M100.86,45.8H27.97c-3.71,0-6.74,3.02-6.74,6.74v48.47c0,3.71,3.02,6.74,6.74,6.74H100.86c3.71,0,6.74-3.02,6.74-6.74V52.54c0-3.71-3.02-6.74-6.74-6.74Zm3.74,55.21c0,2.06-1.68,3.74-3.74,3.74H27.97c-2.06,0-3.74-1.68-3.74-3.74V52.54c0-2.06,1.68-3.74,3.74-3.74H100.86c2.06,0,3.74,1.68,3.74,3.74v48.47Z"/><path d="M51.76,56.48c-11.13,0-20.19,9.1-20.19,20.3s9.06,20.3,20.19,20.3,20.19-9.1,20.19-20.3-9.06-20.3-20.19-20.3Zm0,37.59c-9.48,0-17.19-7.76-17.19-17.3s7.71-17.3,17.19-17.3,17.19,7.76,17.19,17.3-7.71,17.3-17.19,17.3Z"/><path d="M51.76,63.93c-7.05,0-12.78,5.76-12.78,12.84s5.73,12.84,12.78,12.84,12.78-5.76,12.78-12.84-5.73-12.84-12.78-12.84Zm0,22.69c-5.39,0-9.78-4.42-9.78-9.84s4.39-9.84,9.78-9.84,9.78,4.42,9.78,9.84-4.39,9.84-9.78,9.84Z"/><path d="M95.75,58.83h-17.61c-.83,0-1.5,.67-1.5,1.5v8.85c0,5.19,3.83,9.49,8.8,10.23v14.86h-1.59c-.83,0-1.5,.67-1.5,1.5s.67,1.5,1.5,1.5h6.18c.83,0,1.5-.67,1.5-1.5s-.67-1.5-1.5-1.5h-1.59v-14.86c4.97-.73,8.8-5.03,8.8-10.23v-8.85c0-.83-.67-1.5-1.5-1.5Zm-1.5,10.35c0,4.05-3.28,7.35-7.3,7.35s-7.3-3.3-7.3-7.35v-7.35h14.61v7.35Z"/><path d="M107.11,17.12h-21.39c-2.27,0-4.11,1.84-4.11,4.11v4.04c0,2.27,1.84,4.11,4.11,4.11h21.39c2.27,0,4.11-1.84,4.11-4.11v-4.04c0-2.27-1.84-4.11-4.11-4.11Zm1.11,8.15c0,.61-.5,1.11-1.11,1.11h-21.39c-.61,0-1.11-.5-1.11-1.11v-4.04c0-.61,.5-1.11,1.11-1.11h21.39c.61,0,1.11,.5,1.11,1.11v4.04Z"/></svg>