<svg xmlns="http://www.w3.org/2000/svg" viewBox="0 0 64 64" x="0px" y="0px"><title>_</title><g><path d="M56.59388,14.5625h-11.5a.99942.99942,0,0,0-1,1v.5H41.24036a.99943.99943,0,0,0-1,1V20.25h-22.417a.99942.99942,0,0,0-1,1V32H15.76966l.14941-16.98242a1.998,1.998,0,0,0-2-2.01758H6.92786a2.0026,2.0026,0,0,0-2,2V52.666a2.00261,2.00261,0,0,0,2,2h1.166v2a2.00261,2.00261,0,0,0,2,2h5a2.00261,2.00261,0,0,0,2-2v-2H32.86536v2a2.00261,2.00261,0,0,0,2,2h5a2.00261,2.00261,0,0,0,2-2v-2h1.39551a2.00261,2.00261,0,0,0,2-2V34a2.0026,2.0026,0,0,0-2-2H42.24036V21.25c0-.02216-.01117-.04071-.01257-.0625h.01257v-3.125h1.85352v.5a.99942.99942,0,0,0,1,1h11.5C59.89694,19.5625,59.89951,14.5625,56.59388,14.5625ZM40.24036,28.125h-1.709v-2h1.709Zm-17.709-2h2v2h-2Zm-2,2h-1.708v-2h1.708Zm12-4h-2.041V22.25h2.041Zm2-1.875h2v1.875h-2ZM30.49036,32V30.125h2.041V32Zm-2-1.875V32h-1.959V30.125Zm-1.959-2v-2h1.959v2Zm3.959,0v-2h2.041v2Zm-2-4h-1.959V22.25h1.959Zm-3.959,0h-2V22.25h2Zm0,6V32h-2V30.125Zm10,1.875V30.125h2V32Zm0-3.875v-2h2v2Zm5.709-4h-1.709V22.25h1.709Zm-19.709-1.875v1.875h-1.708V22.25Zm-1.708,7.875h1.708V32h-1.708ZM15.09388,56.666h-5v-2h5Zm24.77148,0h-5v-2h5Zm3.39551-4H6.92786V15h6.99121l-.14941,16.98242a1.99819,1.99819,0,0,0,2,2.01758c2.82368-.00017,24.1944-.00175,27.49121-.002ZM38.53138,32V30.125h1.709V32Zm18.0625-14.4375h-10.5v-1h10.5A.5.5,0,0,1,56.59388,17.5625Z"/><path d="M37.59388,35.5a4,4,0,1,0,4,4A4.004,4.004,0,0,0,37.59388,35.5Zm0,6a2,2,0,0,1,0-4,1.97517,1.97517,0,0,1,.51135.07458l-.71057.71058a1,1,0,0,0,1.41406,1.41406l.71057-.71057a1.97505,1.97505,0,0,1,.07459.51135A2.0026,2.0026,0,0,1,37.59388,41.5Z"/><path d="M29.2052,16.75879c1.83592-2.62176.69532-3.47512-.30468-4.29883-2.11422-1.73855-2.82744-3.76275-.88282-6.68066a1,1,0,0,1,1.66407,1.10937c-1.56685,2.35261-.51081,3.20445.48925,4.02735,2.19767,1.80785,2.8547,3.87313.67286,6.98925A1,1,0,0,1,29.2052,16.75879Z"/><path d="M33.11145,15.21289c1.321-1.826.79887-2.394-.20117-3.19141-1.8705-1.494-2.41547-3.26019-.752-5.67382a.99985.99985,0,0,1,1.64648,1.13476c-1.1109,1.61587-.64775,2.1785.35254,2.97461,1.90133,1.51921,2.4633,3.31987.57325,5.92774A.99938.99938,0,0,1,33.11145,15.21289Z"/><path d="M25.11145,16.16016c1.31879-1.823.799-2.39579-.20117-3.19141-1.88346-1.50135-2.40623-3.27458-.752-5.6748a.99985.99985,0,0,1,1.64648,1.13476c-1.112,1.61435-.64764,2.17956.35254,2.97559,1.90729,1.51842,2.45758,3.3252.57325,5.92773A.99938.99938,0,0,1,25.11145,16.16016Z"/></g></svg>