<svg xmlns="http://www.w3.org/2000/svg" version="1.1" viewBox="-5.0 -10.0 110.0 110.0">
 <path d="m96.848 60.18-8.3359-35.418c-0.10938-0.47266-0.53125-0.80469-1.0117-0.80469h-6.2539c-0.31641 0-0.61719 0.14844-0.81641 0.39453-0.19531 0.25-0.26953 0.57813-0.19531 0.88672l0.67578 2.8867h-9.0391v-1.043c0-1.7227-1.3984-3.1211-3.125-3.125h-10.941l1.4023-3.3633c0.26953-0.64453 0.19922-1.3789-0.1875-1.957-0.38672-0.58203-1.0352-0.92969-1.7344-0.92969h-10.418c-0.69531 0-1.3477 0.34766-1.7344 0.92969-0.38672 0.57812-0.45703 1.3125-0.1875 1.957l1.4023 3.3633h-10.941c-1.7227 0.003907-3.1211 1.4023-3.125 3.125v11.344l-3.543 15.496c-2.4648-2.4336-3.293-5.4961-4.8945-10.992l0.003906-0.003907c-1.0859-4.1445-2.4805-8.2031-4.1758-12.141-2.3008-4.6016-9.8398-5.7266-10.16-5.7734h-0.003907c-0.32422-0.046875-0.65234 0.0625-0.88281 0.29297l-5.1992 5.1992c-0.33203 0.33594-0.39062 0.85547-0.14844 1.2617 0.24219 0.41016 0.72656 0.60156 1.1836 0.47266 0.62891-0.17578 3.8867-0.97266 6.3594 0.88672 3.4141 2.5703 5.0898 12.758 6.5664 21.742 1.2227 7.4453 1.5859 13.066 7.0938 17.688l-0.50781 2.2148v0.10156c-0.011718 0.042968-0.019531 0.085937-0.023437 0.12891v2.082c0.003906 2.875 2.332 5.207 5.207 5.2109h45.84c2.875-0.003907 5.207-2.3359 5.2109-5.2109v-2.082c-0.007812-0.042969-0.015625-0.085938-0.027343-0.12891v-0.10156l-8.3086-36.344v-1.9688h11l4.2695 18.113c0.94922 4.0352 4.5469 6.8867 8.6914 6.8867 0.32031 0 0.62109-0.14453 0.81641-0.39453 0.19922-0.25 0.27344-0.57422 0.19922-0.88281zm-77.406-5.6484c-1.6172-9.832-3.2852-19.996-7.3672-23.07l-0.003907-0.003907c-1.4648-1.0586-3.2305-1.625-5.0391-1.6133l2.6875-2.6875c2.1758 0.41016 6.6992 1.7812 8.0859 4.5586 1.6406 3.8281 2.9883 7.7695 4.043 11.793 1.6719 5.7539 2.7227 9.8359 6.3594 12.738-2.1055 9.2031-1.3828 6.0469-3.2031 14-4-3.8789-4.3047-8.0664-5.5625-15.719zm58.418 19.426h-51.562l8.043-35.184c0.015625-0.074219 0.027344-0.15234 0.027344-0.23047v-8.3359h35.422v8.3359c0 0.078125 0.007813 0.15625 0.023438 0.23047zm-1.8203-39.582h-4.168v-4.168h4.168zm13.129 19.719-4.4609-18.918 0.003907 0.003907c-0.11328-0.47266-0.53125-0.80469-1.0156-0.80469h-5.5742v-4.168h4.1055c0.32031 0 0.62109-0.14453 0.81641-0.39453 0.19922-0.25 0.27344-0.57422 0.19922-0.88281l-0.67969-2.8867h4.1094l7.8125 33.199c-2.625-0.53125-4.7031-2.5391-5.3164-5.1484z"/>
</svg>