<svg xmlns="http://www.w3.org/2000/svg" version="1.1" viewBox="-5.0 -10.0 110.0 110.0">
 <path d="m92.012 17.16h-84.023c-2.6289 0-4.7695 2.1406-4.7695 4.7695v50.281c0 2.6289 2.1406 4.7695 4.7695 4.7695h1.4297v2.9883c0 1.5781 1.2812 2.8594 2.8594 2.8594h7.0391c1.5781 0 2.8594-1.2812 2.8594-2.8594v-2.9883h55.602v2.9883c0 1.5781 1.2812 2.8594 2.8594 2.8594h7.0391c1.5781 0 2.8594-1.2812 2.8594-2.8594v-2.9883h1.4297c2.6289 0 4.7695-2.1406 4.7695-4.7695l0.003906-50.281c0.042969-2.6289-2.0977-4.7695-4.7266-4.7695zm-86.883 55.051v-50.281c0-1.5781 1.2812-2.8594 2.8594-2.8594h64.648v56.012l-64.648-0.003906c-1.5664 0-2.8594-1.2891-2.8594-2.8672zm15.16 7.7695c0 0.53125-0.42969 0.94922-0.94922 0.94922h-7.0391c-0.53125 0-0.94922-0.42969-0.94922-0.94922v-2.9883h8.9492v2.9883zm68.371 0c0 0.53125-0.42969 0.94922-0.94922 0.94922h-7.0391c-0.53125 0-0.94922-0.42969-0.94922-0.94922v-2.9883h8.9492v2.9883zm6.2109-7.7695c0 1.5781-1.2812 2.8594-2.8594 2.8594h-17.453v-56h17.449c1.5781 0 2.8594 1.2812 2.8594 2.8594zm-28.91-39.199h-54.152c-1.5781 0-2.8594 1.2812-2.8594 2.8594v32.531c0 1.5781 1.2812 2.8594 2.8594 2.8594h54.148c1.5781 0 2.8594-1.2812 2.8594-2.8594l0.003906-32.531c0.007813-1.582-1.2812-2.8594-2.8594-2.8594zm0.96094 35.379c0 0.53125-0.42969 0.94922-0.94922 0.94922h-54.164c-0.53125 0-0.94922-0.42969-0.94922-0.94922v-32.52c0-0.53125 0.42969-0.94922 0.94922-0.94922h54.148c0.53125 0 0.94922 0.42969 0.94922 0.94922l0.003906 32.52zm22.777-45.5h-9.9805c-1.7188 0-3.1094 1.3984-3.1094 3.1094v3.4219c0 1.7188 1.3984 3.1094 3.1094 3.1094h9.9805c1.7188 0 3.1094-1.3984 3.1094-3.1094v-3.4219c0-1.7188-1.3867-3.1094-3.1094-3.1094zm1.1992 6.5312c0 0.66016-0.53906 1.1992-1.1992 1.1992h-9.9805c-0.66016 0-1.1992-0.53906-1.1992-1.1992v-3.4219c0-0.66016 0.53906-1.1992 1.1992-1.1992h9.9805c0.66016 0 1.1992 0.53906 1.1992 1.1992zm-9.5078 11.199c1.2617 0 2.2891-1.0312 2.2891-2.2891v-0.96094c0-1.2617-1.0312-2.2891-2.2891-2.2891l-2.4922-0.003906c-1.2617 0-2.2891 1.0312-2.2891 2.2891v0.96094c0 1.2617 1.0312 2.2891 2.2891 2.2891zm-2.8711-2.293v-0.96094c0-0.21094 0.17188-0.37891 0.37891-0.37891h2.4883c0.21094 0 0.37891 0.17188 0.37891 0.37891v0.96094c0 0.21094-0.17188 0.37891-0.37891 0.37891l-2.4883 0.003907c-0.20703 0-0.37891-0.17188-0.37891-0.38281zm12-3.25h-2.4883c-1.2617 0-2.2891 1.0312-2.2891 2.2891v0.96094c0 1.2617 1.0312 2.2891 2.2891 2.2891h2.4883c1.2617 0 2.2891-1.0312 2.2891-2.2891v-0.96094c0-1.2656-1.0195-2.2891-2.2891-2.2891zm0.37891 3.25c0 0.21094-0.17188 0.37891-0.37891 0.37891h-2.4883c-0.21094 0-0.37891-0.17188-0.37891-0.37891v-0.96094c0-0.21094 0.17188-0.37891 0.37891-0.37891h2.4883c0.21094 0 0.37891 0.17188 0.37891 0.37891zm-6.1875 20.152c-3.5195 0-6.3906 2.8711-6.3906 6.3906 0 3.5195 2.8711 6.3906 6.3906 6.3906 3.5195 0 6.3906-2.8711 6.3906-6.3906 0-3.5195-2.8711-6.3906-6.3906-6.3906zm-4.4727 6.3906c0-2.1406 1.5117-3.9297 3.5195-4.3711v8.7383c-2.0078-0.4375-3.5195-2.2266-3.5195-4.3672zm5.4336 4.3672v-8.7383c2.0117 0.44141 3.5195 2.2305 3.5195 4.3711s-1.5117 3.9297-3.5195 4.3672zm-0.96094-26.078c-3.5195 0-6.3906 2.8711-6.3906 6.3906s2.8711 6.3906 6.3906 6.3906c3.5195 0 6.3906-2.8711 6.3906-6.3906s-2.8711-6.3906-6.3906-6.3906zm-4.4727 6.3906c0-2.1406 1.5117-3.9297 3.5195-4.3711v8.7383c-2.0078-0.4375-3.5195-2.2266-3.5195-4.3672zm5.4336 4.3711v-8.7383c2.0117 0.44141 3.5195 2.2305 3.5195 4.3711 0 2.1367-1.5117 3.9258-3.5195 4.3672zm-70.613-24.73h47.66c1.2617 0 2.2891-1.0312 2.2891-2.2891v-1.7188c0-1.2617-1.0312-2.2891-2.2891-2.2891l-47.66-0.003906c-1.2617 0-2.2891 1.0312-2.2891 2.2891v1.7188c0 1.2617 1.0312 2.293 2.2891 2.293zm-0.37891-4.0117c0-0.21094 0.17187-0.37891 0.37891-0.37891h47.66c0.21094 0 0.37891 0.17188 0.37891 0.37891v1.7188c0 0.21094-0.17188 0.37891-0.37891 0.37891l-47.66 0.003906c-0.21094 0-0.37891-0.17188-0.37891-0.37891zm40.289 30.512c-4.1484-3.7383-9.8516-5.8984-16.051-6.0898h-0.058594c-6.1992 0.19141-11.898 2.3516-16.051 6.0898-2.0312 1.8281-3.1016 3.8203-3.1016 5.7617 0 3.0391 2.3984 5.1484 4.5508 5.1484h29.27c2.1484 0 4.5508-2.1211 4.5508-5.1484-0.007813-1.9531-1.0781-3.9414-3.1094-5.7617zm-1.4375 9h-29.281c-1.0703 0-2.6406-1.2617-2.6406-3.2383 0-1.3789 0.85156-2.8789 2.4688-4.3398 1.7891-1.6094 3.9102-2.8906 6.2305-3.8281l-1.2109 4.2305c-0.14844 0.51172 0.14844 1.0391 0.64844 1.1797 0.089844 0.03125 0.17969 0.039063 0.26172 0.039063 0.41016 0 0.80078-0.26953 0.92188-0.69141l1.5703-5.4609c0.011719-0.019531 0-0.039062 0-0.058593 1.9688-0.57813 4.0703-0.91016 6.2383-0.98828l-1.7188 5.9883c-0.14844 0.51172 0.14844 1.0391 0.64844 1.1797 0.089843 0.03125 0.17969 0.039063 0.26172 0.039063 0.41016 0 0.80078-0.26953 0.92187-0.69141l1.8398-6.3984c2.1211 0.21094 4.1484 0.67188 6.0508 1.3594l-1.3008 4.5117c-0.14844 0.51172 0.14844 1.0391 0.64844 1.1797 0.089844 0.03125 0.17969 0.039063 0.26172 0.039063 0.41016 0 0.80078-0.26953 0.92188-0.69141l1.2383-4.3008c1.9102 0.87891 3.6602 2.0117 5.1719 3.3711 1.6094 1.4492 2.4688 2.9492 2.4688 4.3398 0.007812 1.9609-1.5508 3.2305-2.6211 3.2305zm-15.57-22.34c0.30078-0.98047 0.58984-1.9102-0.039063-4.2617-0.14062-0.51172 0.17188-1.0312 0.67969-1.1719 0.51172-0.14062 1.0312 0.17188 1.1719 0.67969 0.76953 2.8789 0.37109 4.1719 0.019531 5.3086-0.28906 0.94141-0.51953 1.6797-0.019531 3.5195 0.14062 0.51172-0.17188 1.0312-0.67969 1.1719-0.078125 0.019532-0.17188 0.03125-0.25 0.03125-0.42188 0-0.80859-0.28125-0.92188-0.71094-0.63281-2.3594-0.27344-3.5273 0.039063-4.5664zm-7.6914 0c0.30078-0.98047 0.58984-1.9102-0.039062-4.2617-0.14062-0.51172 0.17188-1.0312 0.67969-1.1719 0.51172-0.14062 1.0312 0.17188 1.1719 0.67969 0.76953 2.8789 0.37109 4.1719 0.019531 5.3086-0.28906 0.94141-0.51953 1.6797-0.019531 3.5195 0.14062 0.51172-0.17188 1.0312-0.67969 1.1719-0.078125 0.019532-0.17188 0.03125-0.25 0.03125-0.42188 0-0.80859-0.28125-0.92188-0.71094-0.64062-2.3594-0.28125-3.5273 0.039062-4.5664zm-7.6992 0c0.30078-0.98047 0.58984-1.9102-0.039062-4.2617-0.14062-0.51172 0.17188-1.0312 0.67969-1.1719 0.51172-0.14062 1.0312 0.17188 1.1719 0.67969 0.76953 2.8789 0.37109 4.1719 0.019532 5.3086-0.28906 0.94141-0.51953 1.6797-0.019532 3.5195 0.14063 0.51172-0.17187 1.0312-0.67969 1.1719-0.078125 0.019532-0.17188 0.03125-0.25 0.03125-0.42188 0-0.80859-0.28125-0.92188-0.71094-0.63281-2.3594-0.26953-3.5273 0.039062-4.5664zm23.09 0c0.30078-0.98047 0.58984-1.9102-0.039062-4.2617-0.14062-0.51172 0.17188-1.0312 0.67969-1.1719 0.51172-0.14062 1.0312 0.17188 1.1719 0.67969 0.76953 2.8789 0.37109 4.1719 0.019532 5.3086-0.28906 0.94141-0.51953 1.6797-0.019532 3.5195 0.14062 0.51172-0.17188 1.0312-0.67969 1.1719-0.078125 0.019532-0.17188 0.03125-0.25 0.03125-0.42188 0-0.80859-0.28125-0.92188-0.71094-0.64062-2.3594-0.28125-3.5273 0.039062-4.5664zm7.6992 0c0.30078-0.98047 0.58984-1.9102-0.039063-4.2617-0.14062-0.51172 0.17188-1.0312 0.67969-1.1719 0.51172-0.14062 1.0312 0.17188 1.1719 0.67969 0.76953 2.8789 0.37109 4.1719 0.019531 5.3086-0.28906 0.94141-0.51953 1.6797-0.019531 3.5195 0.14062 0.51172-0.17188 1.0312-0.67969 1.1719-0.078126 0.019532-0.17188 0.03125-0.25 0.03125-0.42188 0-0.80859-0.28125-0.92188-0.71094-0.64062-2.3594-0.28125-3.5273 0.039063-4.5664z"/>
</svg>