<svg xmlns="http://www.w3.org/2000/svg" xmlns:xlink="http://www.w3.org/1999/xlink" version="1.1" x="0px" y="0px" viewBox="0 0 512 512" style="enable-background:new 0 0 512 512;" xml:space="preserve"><g><path d="M391.5,65h-51.1c-2.5-29-27-52-56.8-52h-55.2c-29.8,0-54.2,23-56.8,52h-51.1C89.1,65,63,90.7,63,122.1   v43.7c0,9.4,8.1,17.2,17.5,17.2H101v258.9c0,31.4,25.1,57.1,56.6,57.1h196.9c31.4,0,56.6-25.7,56.6-57.1V183h20.5   c9.4,0,17.5-7.8,17.5-17.2v-43.7C449,90.7,422.9,65,391.5,65z M228.4,47h55.2c11,0,20.2,8,22.5,18H205.9   C208.2,55,217.4,47,228.4,47z M377,441.9c0,12.7-9.9,23.1-22.6,23.1H157.6c-12.7,0-22.6-10.4-22.6-23.1V183h242V441.9z M415,149H97   v-26.9c0-12.7,10.8-23.1,23.5-23.1h271c12.7,0,23.5,10.4,23.5,23.1V149z"/><path d="M307,409.6c9.4,0,17-7.6,17-17v-150c0-9.4-7.6-17-17-17s-17,7.6-17,17v150C290,402,297.6,409.6,307,409.6z   "/><path d="M205,409.6c9.4,0,17-7.6,17-17v-150c0-9.4-7.6-17-17-17s-17,7.6-17,17v150C188,402,195.6,409.6,205,409.6z   "/></g></svg>