<?xml version="1.0" encoding="utf-8"?>
<!-- Svg Vector Icons : http://www.onlinewebfonts.com/icon -->
<!DOCTYPE svg PUBLIC "-//W3C//DTD SVG 1.1//EN" "http://www.w3.org/Graphics/SVG/1.1/DTD/svg11.dtd">
<svg version="1.1" xmlns="http://www.w3.org/2000/svg" xmlns:xlink="http://www.w3.org/1999/xlink" x="0px" y="0px" viewBox="0 0 256 256" enable-background="new 0 0 256 256" xml:space="preserve">
<metadata> Svg Vector Icons : http://www.onlinewebfonts.com/icon </metadata>
<g><g><path fill="#000000" d="M237.1,18.9C231.1,13,224,10,215.7,10H40.3c-8.3,0-15.4,3-21.4,8.9S10,32,10,40.3v175.5c0,8.3,3,15.4,8.9,21.4S32,246,40.3,246h175.5c8.3,0,15.4-3,21.4-8.9s8.9-13.1,8.9-21.4V40.3C246,32,243,24.9,237.1,18.9z M94.7,95c9.3-9,20.4-13.4,33.4-13.4c13.1,0,24.3,4.5,33.6,13.4s13.9,19.8,13.9,32.5S171,151,161.7,160c-9.3,9-20.5,13.4-33.6,13.4c-13,0-24.2-4.5-33.4-13.4c-9.3-9-13.9-19.8-13.9-32.5C80.8,114.8,85.5,104,94.7,95z M219.3,209.4c0,2.6-0.9,4.9-2.8,6.7c-1.9,1.8-4,2.7-6.6,2.7H45.6c-2.7,0-4.9-0.9-6.7-2.7c-1.8-1.8-2.7-4-2.7-6.7v-99.6h21.7c-2,6.5-3.1,13.2-3.1,20.1c0,19.7,7.2,36.4,21.5,50.3c14.4,13.9,31.6,20.8,51.8,20.8c13.3,0,25.6-3.2,36.9-9.5c11.3-6.4,20.2-15,26.7-25.9c6.5-10.9,9.8-22.8,9.8-35.7c0-7-1-13.7-3.1-20.1h20.8V209.4L219.3,209.4z M219.3,72.2c0,3-1,5.5-3.1,7.5s-4.6,3.1-7.5,3.1h-26.7c-3,0-5.5-1-7.5-3.1s-3.1-4.6-3.1-7.5V46.9c0-2.9,1-5.3,3.1-7.4c2-2.1,4.6-3.2,7.5-3.2h26.7c3,0,5.5,1.1,7.5,3.2c2,2.1,3.1,4.6,3.1,7.4L219.3,72.2L219.3,72.2z"/></g></g>
</svg>