<?xml version="1.0" encoding="utf-8"?>
<!-- Svg Vector Icons : http://www.onlinewebfonts.com/icon -->
<!DOCTYPE svg PUBLIC "-//W3C//DTD SVG 1.1//EN" "http://www.w3.org/Graphics/SVG/1.1/DTD/svg11.dtd">
<svg version="1.1" xmlns="http://www.w3.org/2000/svg" xmlns:xlink="http://www.w3.org/1999/xlink" x="0px" y="0px" viewBox="0 0 256 256" enable-background="new 0 0 256 256" xml:space="preserve">
<metadata> Svg Vector Icons : http://www.onlinewebfonts.com/icon </metadata>
<g><g><g><path fill="" d="M28.8,17.4C20.7,20.2,13,28.5,10.7,37.1c-1.4,5.2-0.6,15.1,1.7,19.9C15,62.2,20.8,68,26,70.6c3.5,1.7,5.3,2.1,12,2.1c6.9,0,8.3-0.2,12.2-2.3c5.8-3.1,10.6-8,13.3-13.7c1.8-4,2.1-5.8,2.1-12.1c0-6.8-0.2-8-2.7-13c-3-6-7.2-10.2-13.3-13.2C44.7,16,34.3,15.5,28.8,17.4z"/><path fill="" d="M173.9,87.5c-11.3,3.1-22.3,11.6-30.5,23.5c-1.3,2-1.4,1.7-1.4-8.5L142,92h-23.5H95v73.9v73.9h23.5H142v-48.9V142l4.2-4c7-6.8,15.8-9.7,29.2-9.7c7.2,0,12.7,2.4,17.2,7.4c6.6,7.3,6.4,4.5,6.4,57.1v46.9h23.5H246l-0.2-47.7c-0.2-52-0.3-52.7-5.4-67.3c-3.4-9.8-6.9-15.5-14.2-22.9c-7.2-7.2-14.8-11.4-25.1-14C193.4,86,180.2,85.7,173.9,87.5z"/><path fill="" d="M14.6,92.6c-0.3,0.2-0.6,33.5-0.6,73.9v73.3H38h23.9l-0.2-73.7l-0.2-73.6l-23.2-0.2C25.6,92.1,15,92.3,14.6,92.6z"/></g></g></g>
</svg>