<?xml version="1.0" encoding="utf-8"?>
<!-- Svg Vector Icons : http://www.onlinewebfonts.com/icon -->
<!DOCTYPE svg PUBLIC "-//W3C//DTD SVG 1.1//EN" "http://www.w3.org/Graphics/SVG/1.1/DTD/svg11.dtd">
<svg version="1.1" xmlns="http://www.w3.org/2000/svg" xmlns:xlink="http://www.w3.org/1999/xlink" x="0px" y="0px" viewBox="0 0 256 256" enable-background="new 0 0 256 256" xml:space="preserve">
<metadata> Svg Vector Icons : http://www.onlinewebfonts.com/icon </metadata>
<g> <path fill="" d="M186.7,150.5l-22.4-10.4c-2-0.9-4.3-0.5-5.8,1.1l-9.4,10c-1.4,1.5-3.6,2-5.6,1.2 c-8.2-3.3-29.8-13.6-39.5-33.5c-0.8-1.6-0.7-3.6,0.3-5.1l6.5-9.5c1-1.4,1.1-3.3,0.5-4.8L101,75.9c-0.8-1.9-2.6-3.1-4.6-3.1h-7.2 c-1.1,0-2.1,0.3-3,1c-4.8,3.6-19.5,16.8-9.7,39C88.1,139.1,123,183.6,171,178c0,0,19.6-5,18.6-23.2 C189.5,153,188.4,151.3,186.7,150.5z M212.1,43.4c-21.9-21.9-50.9-33.9-81.8-33.9c-30.9,0-60,12-81.8,33.9 c-21.9,21.9-33.9,50.9-33.9,81.8c0,20.3,5.3,40.1,15.3,57.6L10,246.5l63.9-20.2c17.2,9.6,36.6,14.6,56.4,14.6 c30.9,0,60-12,81.8-33.9c21.9-21.9,33.9-50.9,33.9-81.8C246,94.3,234,65.2,212.1,43.4L212.1,43.4z M130.3,221.8 c-17.8,0-35.2-4.9-50.3-14.1l-3.7-2.3l-37.1,11.8l11.5-37l-2.3-3.7c-9.6-15.3-14.7-33.1-14.7-51.3c0-53.3,43.3-96.6,96.6-96.6 c53.3,0,96.6,43.3,96.6,96.6C226.9,178.5,183.5,221.8,130.3,221.8L130.3,221.8z"/></g>
</svg>